<?xml version="1.0" encoding="utf-8"?>
<!-- Generator: Adobe Illustrator 17.0.0, SVG Export Plug-In . SVG Version: 6.00 Build 0)  -->
<!DOCTYPE svg PUBLIC "-//W3C//DTD SVG 1.1//EN" "http://www.w3.org/Graphics/SVG/1.1/DTD/svg11.dtd">
<svg version="1.1" id="Layer_1" xmlns="http://www.w3.org/2000/svg" xmlns:xlink="http://www.w3.org/1999/xlink" x="0px" y="0px"
	 width="989.864px" height="852.022px" viewBox="0 0 989.864 852.022" enable-background="new 0 0 989.864 852.022"
	 xml:space="preserve">
<g>
	<path fill="#E69282" d="M114.584,0c57.292,0,93.0059,23.4375,108.6309,65.1045c3.7207,10.7886,1.1162,16.3687-10.0439,20.0889
		l-39.8066,14.1372c-11.5332,3.3481-15.9971,1.4883-20.0898-10.0449c-6.6963-16.7407-17.8574-24.1812-38.6904-24.1812
		c-29.3896,0-40.9229,12.6484-40.9229,38.6904v67.7085c0,26.0415,11.5332,38.6904,40.9229,38.6904
		c20.833,0,32.7383-8.1846,38.6904-24.1816c4.4648-11.5327,8.9287-14.1367,20.0898-10.0444l39.8066,14.1367
		c11.1602,3.7202,13.7646,9.3008,10.0439,20.0894c-15.625,41.6665-51.3389,65.1045-108.6309,65.1045
		C41.2949,275.2983,0,235.4917,0,171.1313V104.167C0,39.8066,41.2949,0,114.584,0z"/>
	<path fill="#E69282" d="M314.7236,21.2056v183.4077h89.6582c11.5332,0,15.625,3.7202,15.625,15.625v33.8545
		c0,11.5327-4.0918,15.625-15.625,15.625H257.0605c-11.9053,0-15.9971-4.0923-15.9971-15.625V21.2056
		c0-11.5327,4.0918-15.625,15.9971-15.625h42.0381C311.0039,5.5806,314.7236,9.6729,314.7236,21.2056z"/>
	<path fill="#E69282" d="M450.1338,5.5806h43.8984c11.1611,0,14.8809,3.7202,14.8809,14.8809v234.3755
		c0,11.1606-3.7197,14.8809-14.8809,14.8809h-43.8984c-11.1611,0-14.8809-3.7202-14.8809-14.8809V20.4614
		C435.2529,9.3008,438.9727,5.5806,450.1338,5.5806z"/>
	<path fill="#E69282" d="M639.8633,0c57.292,0,93.0059,23.4375,108.6309,65.1045c3.7207,10.7886,1.1162,16.3687-10.0439,20.0889
		l-39.8066,14.1372c-11.5332,3.3481-15.9971,1.4883-20.0898-10.0449c-6.6963-16.7407-17.8574-24.1812-38.6904-24.1812
		c-29.3896,0-40.9229,12.6484-40.9229,38.6904v67.7085c0,26.0415,11.5332,38.6904,40.9229,38.6904
		c20.833,0,32.7383-8.1846,38.6904-24.1816c4.4648-11.5327,8.9287-14.1367,20.0898-10.0444l39.8066,14.1367
		c11.1602,3.7202,13.7646,9.3008,10.0439,20.0894c-15.625,41.6665-51.3389,65.1045-108.6309,65.1045
		c-73.2891,0-114.584-39.8066-114.584-104.167V104.167C525.2793,39.8066,566.5742,0,639.8633,0z"/>
	<path fill="#E69282" d="M977.6523,269.7178h-40.1787c-19.7168,0-26.7861-2.604-33.1104-15.625l-32.3662-66.5923
		c-5.9521-11.9048-11.1602-18.6016-25.2969-18.6016h-6.6973v85.1938c0,11.5327-3.7197,15.625-15.625,15.625h-42.0381
		c-11.9053,0-15.9971-4.0923-15.9971-15.625V21.2056c0-11.5327,4.0918-15.625,15.9971-15.625h42.0381
		c11.9053,0,15.625,4.0923,15.625,15.625v82.5894h8.1846l53.5723-84.4497c7.0684-11.5327,10.416-13.7646,29.7617-13.7646h42.7822
		c11.1611,0,14.8818,6.6963,8.9287,16.3687l-67.708,107.8872c9.3008,6.6968,16.3691,15.9971,22.6934,28.646l49.1074,93.0063
		C992.5332,261.5332,989.9287,269.7178,977.6523,269.7178z"/>
	<path fill="#E69282" d="M472.8291,288.3618c42.0381,0,75.1484,29.7617,75.1484,69.5684c0,29.0181-12.6484,49.4795-39.0625,65.1045
		l-3.3477,1.8604l24.1816,26.042l17.8564-17.8574c5.9531-5.9521,12.6494-5.9521,18.6016,0l26.7861,26.4141
		c4.8359,5.208,5.5801,9.6719-1.1162,16.3691l-20.4619,20.0889l44.6436,48.3633c7.4404,7.4404,5.208,13.7646-6.3252,13.7646
		h-47.9902c-10.0449,0-14.8818-1.4883-20.834-8.1846l-12.2764-13.0205c-26.042,21.5771-47.9912,26.7861-73.6611,26.7861
		c-52.083,0-87.4258-31.6221-87.4258-82.5898c0-34.2266,17.8574-56.1758,44.2705-71.0571
		c-10.7881-13.7646-16.7402-30.5059-16.7402-47.9912C395.0762,323.7041,421.1172,288.3618,472.8291,288.3618z M433.3945,481.4429
		c0,14.5088,10.0439,24.1816,25.6689,24.1816c12.6494,0,20.834-6.3242,28.6465-13.3926l-35.7148-38.3193
		C437.1143,461.353,433.3945,472.1421,433.3945,481.4429z M472.8291,341.5615c-10.7891,0-16.7412,7.4404-16.7412,17.1128
		c0,8.1846,2.6045,14.5093,10.417,23.8096l7.8125-4.0923c10.416-5.9521,14.1367-12.2769,14.1367-21.2051
		C488.4541,347.8857,482.1299,341.5615,472.8291,341.5615z"/>
	<path fill="#E69282" d="M264.3232,597.9292v232.8877c0,11.5332-4.0918,15.625-15.625,15.625h-42.4111
		c-11.5322,0-15.625-4.0918-15.625-15.625v-85.5654h-72.1729v85.5654c0,11.5332-3.7197,15.625-15.625,15.625H60.8262
		c-11.9053,0-15.9971-4.0918-15.9971-15.625V597.9292c0-11.9043,4.0918-15.9971,15.9971-15.9971h42.0381
		c11.9053,0,15.625,4.0928,15.625,15.9971v82.2178h72.1729v-82.2178c0-11.9043,4.0928-15.9971,15.625-15.9971h42.4111
		C260.2314,581.9321,264.3232,586.0249,264.3232,597.9292z"/>
	<path fill="#E69282" d="M394.8945,576.7241c73.2891,0,114.2119,39.8066,114.2119,104.167v66.9639
		c0,64.3604-40.9229,104.167-114.2119,104.167c-73.6611,0-114.584-39.8066-114.584-104.167v-66.9639
		C280.3105,616.5308,321.2334,576.7241,394.8945,576.7241z M394.8945,641.8286c-26.042,0-40.9229,12.2764-40.9229,35.7139v73.6611
		c0,23.4375,14.8809,35.7139,40.9229,35.7139c25.6699,0,40.5508-12.2764,40.5508-35.7139v-73.6611
		C435.4453,654.105,420.5645,641.8286,394.8945,641.8286z"/>
	<path fill="#E69282" d="M599.1279,597.9292v183.4082h89.6582c11.5332,0,15.625,3.7207,15.625,15.625v33.8545
		c0,11.5332-4.0918,15.625-15.625,15.625H541.4648c-11.9053,0-15.9971-4.0918-15.9971-15.625V597.9292
		c0-11.5322,4.0918-15.625,15.9971-15.625h42.0381C595.4082,582.3042,599.1279,586.397,599.1279,597.9292z"/>
	<path fill="#E69282" d="M940.6406,686.4712v55.8037c0,63.9883-40.9229,104.167-114.2119,104.167h-90.7734
		c-11.9053,0-15.9971-4.0918-15.9971-15.625V597.9292c0-11.5322,4.0918-15.625,15.9971-15.625h90.7734
		C899.7178,582.3042,940.6406,622.1108,940.6406,686.4712z M823.8252,647.4087h-30.5068v133.9287h30.5068
		c30.1338,0,43.1543-13.7646,43.1543-40.1787v-53.5713C866.9795,661.1733,853.959,647.4087,823.8252,647.4087z"/>
</g>
</svg>
