<?xml version="1.0" encoding="utf-8"?>
<!-- Generator: Adobe Illustrator 17.0.0, SVG Export Plug-In . SVG Version: 6.00 Build 0)  -->
<!DOCTYPE svg PUBLIC "-//W3C//DTD SVG 1.1//EN" "http://www.w3.org/Graphics/SVG/1.1/DTD/svg11.dtd">
<svg version="1.1" id="Layer_1" xmlns="http://www.w3.org/2000/svg" xmlns:xlink="http://www.w3.org/1999/xlink" x="0px" y="0px"
	 width="48px" height="1803.0776px" viewBox="0 0 48 1803.0776" enable-background="new 0 0 48 1803.0776" xml:space="preserve">
<g>
	<g>
		<path fill="#FED6AA" d="M48,1779.0776c0,13.2548-10.7452,24-24,24l0,0c-13.2548,0-24-10.7452-24-24v-1752
			c0-13.2548,10.7452-24,24-24l0,0c13.2548,0,24,10.7452,24,24V1779.0776z"/>
	</g>
	<g>
		<path fill="#F9F9F9" d="M43,48.0776V19.4109C43,8.7366,34.6743,0,24,0S5,8.5699,5,19.2443v28.8333H43z"/>
	</g>
	<g>
		<rect x="5" y="46.0776" fill="#F2F2F2" width="38" height="2"/>
	</g>
	<g>
		<g>
			<rect x="14" y="87.0776" fill="#E7B08E" width="20" height="2"/>
		</g>
		<g>
			<rect x="9" y="95.0776" fill="#E7B08E" width="30" height="2"/>
		</g>
		<g>
			<rect x="14" y="103.0776" fill="#E7B08E" width="20" height="2"/>
		</g>
	</g>
	<g>
		<g>
			<rect x="14" y="570.0776" fill="#E7B08E" width="20" height="2"/>
		</g>
		<g>
			<rect x="9" y="578.0776" fill="#E7B08E" width="30" height="2"/>
		</g>
		<g>
			<rect x="14" y="586.0776" fill="#E7B08E" width="20" height="2"/>
		</g>
	</g>
	<g>
		
			<rect x="20.0627" y="6.988" transform="matrix(0.7071 0.7071 -0.7071 0.7071 19.4657 -10.2142)" fill="#FFFFFF" width="3.9996" height="22.8042"/>
	</g>
	<g>
		
			<rect x="26.7502" y="18.1012" transform="matrix(0.7071 0.7071 -0.7071 0.7071 26.5952 -12.8012)" fill="#FFFFFF" width="3.9996" height="15.2028"/>
	</g>
</g>
</svg>
