<?xml version="1.0" encoding="utf-8"?>
<!-- Generator: Adobe Illustrator 17.0.0, SVG Export Plug-In . SVG Version: 6.00 Build 0)  -->
<!DOCTYPE svg PUBLIC "-//W3C//DTD SVG 1.1//EN" "http://www.w3.org/Graphics/SVG/1.1/DTD/svg11.dtd">
<svg version="1.1" id="Layer_1" xmlns="http://www.w3.org/2000/svg" xmlns:xlink="http://www.w3.org/1999/xlink" x="0px" y="0px"
	 width="559.2723px" height="559.2722px" viewBox="0 0 559.2723 559.2722" enable-background="new 0 0 559.2723 559.2722"
	 xml:space="preserve">
<g>
	<g>
		<g>
			<g>
				<path fill="#FED6AA" d="M319.3473,17.9827c-1.7489-3.5553-4.115-6.5982-6.8857-9.0363
					c-2.8124-2.4064-6.0459-4.1982-9.4615-5.3265c-6.8391-2.2569-14.4437-1.8082-21.2505,1.7673s-11.5488,9.5609-13.7596,16.2556
					c-1.1075,3.3505-1.566,6.8786-1.3453,10.4037c0.1704,3.5398,1.038,7.0694,2.6834,10.4132
					c7.7647,15.8814,15.1152,31.8865,21.4406,48.0023c6.3599,16.097,11.8816,32.3091,15.8184,48.3294
					c0.6176,2.1913,0.9804,4.3471,1.4686,6.5182l0.6953,3.2508c0.2383,1.0845,0.4766,2.1687,0.6274,3.2352l1.0638,6.424
					c0.2055,1.0769,0.3186,2.1294,0.4297,3.1805l0.3592,3.1579c0.9006,8.3909,1.1869,16.5738,0.4691,24.1755l-0.5,3.8489
					l-0.2349,1.9244c-0.1023,0.6286-0.2523,1.2316-0.3718,1.8492l-0.7306,3.6889c-0.342,1.1754-0.6714,2.3529-0.9885,3.5344
					c-0.2686,1.2064-0.736,2.3095-1.1317,3.4458c-0.4171,1.1259-0.7421,2.2953-1.2806,3.3612l-1.4418,3.2798
					c-0.5731,1.0541-1.133,2.1135-1.6808,3.1805c-2.3726,4.1946-5.2167,8.2531-8.5995,12.2539
					c-3.367,4.0004-7.4086,7.9191-11.8089,11.8684c-4.9594,4.4122-8.0129,10.8634-8.8011,17.8782
					c-0.7401,6.9976,1.0259,14.4238,5.7625,20.4876c4.7296,6.0548,11.4342,9.6782,18.6102,10.4398
					c7.1428,0.8011,14.9699-1.4476,21.5027-7.254c5.7835-5.1896,11.6178-10.8063,17.0934-17.2707
					c5.4715-6.4413,10.5704-13.6,14.9094-21.3402l3.1002-5.9076c0.9444-2.0157,1.8244-4.0664,2.7194-6.107
					c0.9409-2.0272,1.6286-4.1362,2.3877-6.2239c0.7363-2.0936,1.5224-4.1819,2.0623-6.3074l1.7446-6.3642
					c0.4593-2.1227,0.8792-4.2483,1.3036-6.376c0.2031-1.0627,0.4342-2.1305,0.6064-3.1902l0.4225-3.1678
					c0.2712-2.1112,0.5575-4.2303,0.7899-6.3379c1.1392-12.2196,0.6626-24.0109-0.5511-35.3748l-0.4888-4.2518
					c-0.1585-1.4207-0.3227-2.8388-0.5714-4.2078l-1.3719-8.292c-0.2108-1.3946-0.4993-2.7401-0.7893-4.0852l-0.8588-4.0436
					c-0.5963-2.6805-1.0959-5.4284-1.8136-8.0297c-4.7804-19.4392-11.1158-37.8418-18.1574-55.6882
					C335.519,52.0867,327.6116,34.8913,319.3473,17.9827z"/>
			</g>
			<g>
				<path fill="#F9F9F9" d="M324.845,43.1408l-40.1571,18.1919c0,0-3.4294-7.3684-6.8588-14.7367
					c-3.6027-7.322-7.2054-14.6439-7.2054-14.6439c-2.7027-5.4078-3.1192-11.3382-1.4127-16.7075
					c1.6908-5.3586,5.4264-10.1322,10.8984-13.0294c5.472-2.8973,11.5132-3.2116,16.9318-1.3602
					c5.3991,1.8587,10.2462,5.8302,13.0734,11.5034c0,0,3.7591,7.6411,7.5181,15.2821c3.6064,7.7507,7.2127,15.5014,7.2127,15.5014
					L324.845,43.1408z"/>
			</g>
			<g>
				<polygon fill="#F2F2F2" points="284.6884,61.3337 324.8456,43.1418 323.8398,40.9785 283.7368,59.2894 				"/>
			</g>
			<g>
				<g>
					<polygon fill="#E7B08E" points="311.8135,100.1654 333.6649,92.3622 332.8365,90.1358 311.0225,98.0429 					"/>
				</g>
				<g>
					<polygon fill="#E7B08E" points="309.2174,110.54 342.2439,99.5584 341.4725,97.2673 308.5078,108.4332 					"/>
				</g>
				<g>
					<polygon fill="#E7B08E" points="317.4739,117.281 339.6605,110.4888 338.9744,108.1927 316.8329,115.1303 					"/>
				</g>
			</g>
			<g>
				<g>
					<polygon fill="#E7B08E" points="325.7833,203.232 348.3848,208.4807 348.8965,205.9534 326.1838,201.2092 					"/>
				</g>
				<g>
					<path fill="#E7B08E" d="M318.0393,209.2422l32.9979,11.0673c0,0,0.2281-0.6489,0.4562-1.2978
						c0.2456-0.6454,0.407-1.308,0.407-1.308l-33.259-10.2561c0,0-0.1022,0.4698-0.2805,0.9065
						C318.2001,208.7981,318.0393,209.2422,318.0393,209.2422z"/>
				</g>
				<g>
					<polygon fill="#E7B08E" points="320.5713,218.642 341.7247,228.1765 342.7747,225.7842 321.3878,216.7856 					"/>
				</g>
			</g>
			<g>
				<path fill="#FFFFFF" d="M294.149,10.3263l-4.435-1.4332c0,0-2.0152,6.285-4.0304,12.5701
					c-2.0977,6.2843-4.2702,12.4858-4.2702,12.4858l4.3764,1.4621c0,0,2.1396-6.245,4.2792-12.49
					c1.0757-3.1522,2.0781-6.2899,2.8286-8.6508C293.6484,11.9039,294.149,10.3263,294.149,10.3263z"/>
			</g>
			<g>
				<path fill="#FFFFFF" d="M303.5892,18.7002l-4.4024-1.5146c0,0-1.4038,4.209-2.8076,8.418
					c-1.4228,4.1708-2.8456,8.3415-2.8456,8.3415l4.4022,1.5147c0,0,1.4228-4.1708,2.8457-8.3416
					C302.1853,22.9092,303.5892,18.7002,303.5892,18.7002z"/>
			</g>
		</g>
		<g>
			<g>
				<path fill="#FED6AA" d="M223.7573,49.3639c-2.9726-2.6922-6.4008-4.5173-9.9183-5.7136
					c-3.5292-1.1765-7.1851-1.6489-10.7984-1.3442c-7.2095,0.5667-14.0472,3.9402-18.9255,9.8833
					c-4.8783,5.943-6.9179,13.295-6.3701,20.2941c0.2936,3.4874,1.1685,6.9486,2.6907,10.1161
					c1.5041,3.1816,3.7256,6.0231,6.4497,8.4959c13.1282,11.5991,25.6968,23.6138,37.2114,36.1127
					c5.8176,6.2219,11.1765,12.6382,16.325,19.0942c5.0153,6.4986,9.6719,13.089,13.7353,19.7271
					c0.8671,1.4597,1.661,2.9243,2.5028,4.3818l1.2514,2.1857l1.0839,2.1869c0.7016,1.4552,1.5111,2.9105,2.1438,4.3562
					l1.8549,4.3204c0.288,0.6014,0.4961,1.2493,0.719,1.8887l0.6742,1.9161c0.4501,1.2762,0.9392,2.5497,1.2895,3.8249
					l1.1773,3.8157l0.8296,3.6088c0.1243,0.5996,0.3235,1.1941,0.395,1.7967l0.2711,1.8022
					c0.1633,1.2022,0.455,2.3925,0.4955,3.6057l0.3173,3.6215c0.0082,1.221,0.0293,2.4405,0.0634,3.6606
					c-0.0418,4.9078-0.5538,9.9394-1.5432,15.1773c-0.9775,5.2308-2.5524,10.7106-4.4072,16.3828
					c-2.1086,6.3598-1.5185,13.5007,1.3282,19.9649c2.8777,6.4272,8.1437,11.9527,15.2883,14.8084
					c7.1346,2.8517,14.7519,2.6047,21.334-0.3398c6.5739-2.8965,12.1964-8.7448,14.9309-16.9808
					c2.3989-7.334,4.6393-15.037,6.201-23.2684c1.5677-8.2118,2.5085-16.8432,2.5549-25.6274l-0.1352-6.6064
					c-0.153-2.2034-0.3544-4.408-0.5501-6.6102c-0.1454-2.2104-0.5667-4.3795-0.8868-6.5646l-0.5256-3.2701
					c-0.1636-1.0941-0.455-2.1469-0.681-3.2217c-0.4895-2.1314-0.9691-4.2924-1.5011-6.3911l-1.8148-6.0078
					c-0.584-2.0201-1.2956-3.954-1.9863-5.905l-1.0444-2.9222c-0.3495-0.9735-0.6854-1.9497-1.1151-2.9044l-2.8914-6.7359
					c-0.9884-2.2217-2.0982-4.2952-3.1522-6.4449l-1.6087-3.1929l-1.7205-3.045c-1.1552-2.0203-2.2915-4.0734-3.4762-6.0585
					c-5.4583-8.9412-11.3671-17.259-17.5087-25.2058c-6.2155-7.8233-12.591-15.4065-19.2343-22.5252
					C251.8561,75.1569,237.9793,61.9355,223.7573,49.3639z"/>
			</g>
			<g>
				<path fill="#F9F9F9" d="M238.5117,70.7445l-30.4524,31.8778c0,0-0.3589-0.3495-1.0062-0.948
					c-0.6442-0.6007-1.5644-1.4589-2.6687-2.4886c-2.2288-2.0448-5.103-4.8429-8.1526-7.5132
					c-3.0238-2.6886-6.0092-5.4075-8.3087-7.3996c-2.3086-1.9849-3.8477-3.3082-3.8477-3.3082
					c-2.2854-1.9539-4.0368-4.2939-5.3308-6.8064c-1.3009-2.5058-2.0888-5.2302-2.3493-8.0202
					c-0.5178-5.5774,1.0621-11.4263,4.971-16.2281c3.9088-4.8019,9.3532-7.4464,15.0837-7.8427
					c2.8636-0.1995,5.7958,0.1607,8.6254,1.08c2.821,0.9325,5.5085,2.478,7.928,4.5493c0,0,1.6217,1.395,4.0543,3.4876
					c2.4232,2.1083,5.608,4.9971,8.8127,7.8516c3.2221,2.8258,6.329,5.8426,8.7067,8.0258
					c1.1819,1.1031,2.1667,2.0224,2.8562,2.6659c0.6913,0.6404,1.0793,1.0178,1.0793,1.0178L238.5117,70.7445z"/>
			</g>
			<g>
				<path fill="#F2F2F2" d="M208.0601,102.6231l30.4525-31.8777c0,0-0.4377-0.4137-0.8754-0.8275
					c-0.4397-0.4105-0.8794-0.821-0.8794-0.821l-30.3257,31.9983c0,0,0.4086,0.3809,0.8171,0.7619
					C207.6607,102.2359,208.0601,102.6231,208.0601,102.6231z"/>
			</g>
			<g>
				<g>
					<path fill="#E7B08E" d="M247.0462,128.676l17.7984-14.886c0,0-0.3824-0.4643-0.7647-0.9286
						c-0.3929-0.4524-0.7857-0.9047-0.7857-0.9047l-17.694,15.0099c0,0,0.3682,0.4232,0.7365,0.8465
						C246.6914,128.2446,247.0462,128.676,247.0462,128.676z"/>
				</g>
				<g>
					<polygon fill="#E7B08E" points="248.1227,139.1879 275.4834,117.6765 273.9373,115.7735 246.74,137.4912 					"/>
				</g>
				<g>
					<polygon fill="#E7B08E" points="258.0419,142.6802 276.77,128.9822 275.3107,127.0499 256.7028,140.9107 					"/>
				</g>
			</g>
			<g>
				<g>
					<polygon fill="#E7B08E" points="282.3578,190.1001 304.7327,183.957 303.9978,181.5306 281.7405,188.0873 					"/>
				</g>
				<g>
					<path fill="#E7B08E" d="M278.452,199.1178l34.2689-6.0822c0,0-0.109-0.6765-0.218-1.353
						c-0.1114-0.6758-0.2803-1.3359-0.2803-1.3359l-34.1138,6.899c0,0,0.129,0.4632,0.2013,0.9328
						C278.381,198.6482,278.452,199.1178,278.452,199.1178z"/>
				</g>
				<g>
					<polygon fill="#E7B08E" points="285.1851,206.1906 308.3163,204.3674 308.0901,201.7745 285.0102,204.1603 					"/>
				</g>
			</g>
			<g>
				<path fill="#FFFFFF" d="M197.4856,51.9149l-4.6557,0.4019c0,0,0.6484,6.5782,1.1103,13.1878
					c0.4904,6.593,0.8839,13.1018,0.8839,13.1018l4.5734-0.3113c0,0-0.087-1.6465-0.2174-4.1161
					c-0.1438-2.4664-0.3801-5.7321-0.6207-9.0298c-0.2587-3.3066-0.5174-6.6132-0.7115-9.0931
					C197.6305,53.5713,197.4856,51.9149,197.4856,51.9149z"/>
			</g>
			<g>
				<path fill="#FFFFFF" d="M209.4382,56.0466l-4.6725,0.3094c0,0,0.342,4.4065,0.684,8.8131
					c0.3025,4.4197,0.5332,8.8258,0.5332,8.8258l4.6328-0.2588c0,0-0.2626-4.4178-0.5252-8.8355
					c-0.1394-2.2214-0.2926-4.4464-0.4303-6.0925C209.527,57.1511,209.4382,56.0466,209.4382,56.0466z"/>
			</g>
		</g>
		<g>
			<g>
				<path fill="#FED6AA" d="M116.2921,108.2414c-3.9205-0.8452-7.8019-0.7116-11.4463,0.0112
					c-3.6446,0.7458-7.0468,2.1646-10.0238,4.2352c-5.9602,4.0956-10.195,10.436-11.4481,18.022s0.6565,14.9728,4.6306,20.7602
					c1.998,2.8733,4.4863,5.4333,7.3883,7.4153c2.8934,2.0033,6.238,3.3533,9.8336,4.1327
					c17.1689,3.4809,34.0609,7.6015,50.2823,12.6685c8.1492,2.4795,15.9982,5.3567,23.6849,8.3735
					c7.5927,3.1203,14.9206,6.4994,21.7585,10.2166c1.4808,0.8307,2.9007,1.7021,4.3584,2.5434l2.1766,1.2672l2.0321,1.352
					c1.3352,0.9094,2.764,1.7651,4.0347,2.7007l3.7666,2.8142c0.5501,0.3768,1.0542,0.8339,1.567,1.2762l1.542,1.3224
					c1.0279,0.8802,2.0883,1.7386,3.0293,2.6678l2.9275,2.7159l2.5229,2.7105c0.4075,0.4572,0.8772,0.8724,1.2404,1.3585
					l1.136,1.4252c0.7426,0.9595,1.5902,1.8445,2.232,2.8748l2.0855,2.9776c0.6176,1.0533,1.2456,2.0989,1.8852,3.1385
					c2.4177,4.2712,4.4901,8.8846,6.2521,13.9155c1.7688,5.0187,3.1449,10.5518,4.3747,16.3915
					c1.3538,6.562,5.4353,12.4512,11.1327,16.6261c5.7057,4.1273,13.0291,6.2795,20.6443,5.1803
					c7.6046-1.0977,14.0779-5.1203,18.3059-10.9614c4.2449-5.7954,6.1899-13.6714,4.4402-22.1712
					c-1.5895-7.5509-3.5007-15.3421-6.264-23.2515c-2.7483-7.8955-6.2492-15.8409-10.6011-23.4715l-3.4203-5.6537
					c-1.2342-1.8317-2.511-3.6402-3.7815-5.4495c-1.2311-1.8416-2.6805-3.5095-4.0503-5.2417l-2.0902-2.5692
					c-0.6887-0.8657-1.4675-1.6318-2.2006-2.4496c-1.4896-1.601-2.9855-3.2327-4.4955-4.7843l-4.5754-4.2953
					c-1.5157-1.4574-3.0989-2.7765-4.6725-4.1207l-2.3655-2.0085c-0.7894-0.6683-1.5684-1.3458-2.4179-1.9577l-5.8721-4.3878
					c-1.9668-1.4299-3.9648-2.6707-5.9525-4.0055l-2.9897-1.9609l-3.0125-1.7768c-2.0106-1.1721-4.0213-2.382-6.0398-3.5088
					c-9.1976-5.0142-18.4738-9.2632-27.7659-13.0746c-9.2944-3.6674-18.6074-7.0469-27.92-9.8902
					C153.5229,116.5292,134.8945,112.0176,116.2921,108.2414z"/>
			</g>
			<g>
				<path fill="#F9F9F9" d="M139.7601,119.3802l-10.4334,42.8332c0,0-0.4855-0.1232-1.3454-0.3179
					c-0.8582-0.1981-2.0842-0.4812-3.5555-0.8209c-2.9526-0.6564-6.8408-1.6426-10.8169-2.4302
					c-3.963-0.8165-7.9079-1.6784-10.8953-2.2538c-2.9918-0.5646-4.9863-0.941-4.9863-0.941
					c-2.9561-0.5494-5.6429-1.7002-8.0198-3.229c-2.3796-1.5196-4.4241-3.4851-6.0447-5.771
					c-3.2372-4.5713-4.7934-10.4265-3.8092-16.5394c0.9841-6.1129,4.3768-11.1254,9.1414-14.3339
					c2.3802-1.6046,5.0997-2.7587,8.0098-3.3775c2.9093-0.6029,6.0095-0.6083,9.1405-0.0243c0,0,2.102,0.3973,5.2549,0.9932
					c3.1527,0.6142,7.3552,1.5236,11.5579,2.3933c4.2033,0.8362,8.4024,1.8953,11.5531,2.5971
					c1.5751,0.3644,2.8877,0.6681,3.8065,0.8806c0.9189,0.2089,1.4436,0.3418,1.4436,0.3418L139.7601,119.3802z"/>
			</g>
			<g>
				<path fill="#F2F2F2" d="M129.3277,162.2137l10.4335-42.8332c0,0-0.586-0.1395-1.1719-0.2789
					c-0.5861-0.1357-1.1721-0.2713-1.1721-0.2713l-10.2634,42.8743c0,0,0.5443,0.1256,1.0886,0.2512
					C128.7883,162.0782,129.3277,162.2137,129.3277,162.2137z"/>
			</g>
			<g>
				<g>
					<path fill="#E7B08E" d="M176.1172,165.283l7.9708-21.7909c0,0-0.5633-0.2109-1.1266-0.4218
						c-0.5664-0.1953-1.1328-0.3907-1.1328-0.3907l-7.8185,21.846c0,0,0.5305,0.1824,1.061,0.3648
						C175.5942,165.0868,176.1172,165.283,176.1172,165.283z"/>
				</g>
				<g>
					<polygon fill="#E7B08E" points="182.3054,173.8483 195.2447,141.5385 192.9543,140.6636 180.2596,173.0703 					"/>
				</g>
				<g>
					<polygon fill="#E7B08E" points="192.6418,171.9132 202.0118,150.6863 199.7818,149.7424 190.5973,171.0502 					"/>
				</g>
			</g>
			<g>
				<g>
					<polygon fill="#E7B08E" points="237.4101,200.8225 253.7158,184.3149 251.8662,182.5811 235.8691,199.3879 					"/>
				</g>
				<g>
					<path fill="#E7B08E" d="M238.5365,210.5849l26.6366-22.4018c0,0-0.4326-0.5313-0.8653-1.0627
						c-0.4343-0.5296-0.9107-1.0168-0.9107-1.0168l-26.0939,23.0317c0,0,0.3433,0.3367,0.6407,0.7072
						C238.2402,210.2137,238.5365,210.5849,238.5365,210.5849z"/>
				</g>
				<g>
					<polygon fill="#E7B08E" points="247.9039,213.3436 267.0245,200.1991 265.5322,198.0666 246.7373,211.6728 					"/>
				</g>
			</g>
			<g>
				<path fill="#FFFFFF" d="M94.8156,123.5866l-3.8309,2.676c0,0,3.8507,5.3727,7.5555,10.8658
					c3.7213,5.4645,7.3164,10.9045,7.3164,10.9045l3.805-2.5563c0,0-0.8985-1.3824-2.2464-3.456
					c-1.3577-2.0641-3.1953-4.774-5.0525-7.5096c-1.8774-2.7342-3.7547-5.4685-5.1628-7.5191
					C95.7694,124.9487,94.8156,123.5866,94.8156,123.5866z"/>
			</g>
			<g>
				<path fill="#FFFFFF" d="M107.2327,121.1884l-3.8917,2.6042c0,0,2.4995,3.6451,4.9989,7.2903
					c2.4718,3.6763,4.8747,7.3768,4.8747,7.3768l3.8827-2.5406c0,0-2.4363-3.6946-4.8726-7.3892
					c-1.2314-1.8541-2.4766-3.7044-3.4189-5.0612C107.8619,122.1006,107.2327,121.1884,107.2327,121.1884z"/>
			</g>
		</g>
		<g>
			<g>
				<path fill="#FED6AA" d="M18.5402,239.8796c-3.5553,1.7489-6.5982,4.1149-9.0363,6.8857
					c-2.4064,2.8124-4.1982,6.0459-5.3265,9.4615c-2.2569,6.8391-1.8082,14.4437,1.7673,21.2505
					c3.5755,6.8069,9.5609,11.5488,16.2556,13.7596c3.3505,1.1075,6.8786,1.566,10.4037,1.3453
					c3.5398-0.1704,7.0694-1.0381,10.4132-2.6835c15.8814-7.7647,31.8865-15.1152,48.0023-21.4406
					c16.097-6.3599,32.3091-11.8817,48.3295-15.8186c2.1913-0.6177,4.3471-0.9805,6.5182-1.4686l3.2508-0.6954
					c1.0845-0.2383,2.1687-0.4766,3.2352-0.6274l6.4241-1.0638c1.0769-0.2055,2.1294-0.3186,3.1805-0.4297l3.1579-0.3592
					c8.3909-0.9007,16.5739-1.1869,24.1756-0.4692l3.8489,0.5l1.9244,0.2349c0.6285,0.1023,1.2316,0.2523,1.8492,0.3718
					l3.6889,0.7306c1.1754,0.342,2.3528,0.6714,3.5344,0.9885c1.2064,0.2686,2.3094,0.736,3.4457,1.1317
					c1.1259,0.417,2.2952,0.7421,3.3611,1.2807l3.2798,1.4418c1.0541,0.5731,2.1135,1.133,3.1805,1.6808
					c4.1945,2.3726,8.253,5.2167,12.2538,8.5996c4.0004,3.3669,7.919,7.4087,11.8683,11.809
					c4.4122,4.9594,10.8634,8.013,17.8782,8.8012c6.9975,0.7401,14.4238-1.0258,20.4876-5.7624
					c6.0548-4.7296,9.6783-11.4342,10.4399-18.6102c0.8011-7.1428-1.4475-14.9699-7.2538-21.5027
					c-5.1896-5.7835-10.8062-11.6178-17.2706-17.0935c-6.4413-5.4715-13.6-10.5705-21.3401-14.9095l-5.9077-3.1002
					c-2.0157-0.9445-4.0664-1.8244-6.107-2.7194c-2.0272-0.9409-4.1362-1.6287-6.224-2.3877
					c-2.0936-0.7362-4.1819-1.5224-6.3074-2.0623l-6.3642-1.7446c-2.1227-0.4593-4.2483-0.8792-6.376-1.3036
					c-1.0628-0.2031-2.1305-0.4342-3.1902-0.6065l-3.1678-0.4225c-2.1112-0.2712-4.2303-0.5574-6.338-0.7899
					c-12.2197-1.1392-24.011-0.6625-35.375,0.5512l-4.2518,0.4888c-1.4207,0.1585-2.8388,0.3227-4.2078,0.5715l-8.292,1.3719
					c-1.3946,0.2108-2.7401,0.4993-4.0852,0.7893l-4.0436,0.8588c-2.6805,0.5964-5.4284,1.0959-8.0297,1.8137
					c-19.4391,4.7804-37.8417,11.1159-55.6881,18.1575C52.6442,223.7079,35.4489,231.6154,18.5402,239.8796z"/>
			</g>
			<g>
				<path fill="#F9F9F9" d="M43.6983,234.3819l18.1919,40.1571c0,0-7.3684,3.4294-14.7367,6.8588
					c-7.322,3.6027-14.6439,7.2054-14.6439,7.2054c-5.4079,2.7026-11.3382,3.1192-16.7075,1.4127
					c-5.3586-1.6908-10.1322-5.4264-13.0294-10.8984c-2.8973-5.472-3.2116-11.5132-1.3602-16.9318
					c1.8587-5.3991,5.8302-10.2463,11.5034-13.0734c0,0,7.641-3.7591,15.2821-7.5181c7.7507-3.6064,15.5013-7.2127,15.5013-7.2127
					L43.6983,234.3819z"/>
			</g>
			<g>
				<polygon fill="#F2F2F2" points="61.8912,274.5385 43.6993,234.3814 41.536,235.3871 59.8469,275.4901 				"/>
			</g>
			<g>
				<g>
					<polygon fill="#E7B08E" points="100.7229,247.4134 92.9196,225.562 90.6933,226.3903 98.6004,248.2044 					"/>
				</g>
				<g>
					<polygon fill="#E7B08E" points="111.0975,250.0094 100.1158,216.9829 97.8247,217.7543 108.9907,250.719 					"/>
				</g>
				<g>
					<polygon fill="#E7B08E" points="117.8385,241.7529 111.0462,219.5664 108.7501,220.2525 115.6878,242.394 					"/>
				</g>
			</g>
			<g>
				<g>
					<polygon fill="#E7B08E" points="203.7898,233.4432 209.0384,210.8417 206.5111,210.33 201.767,233.0427 					"/>
				</g>
				<g>
					<path fill="#E7B08E" d="M209.7999,241.1872l11.0673-32.9979c0,0-0.6489-0.2281-1.2978-0.4562
						c-0.6454-0.2456-1.308-0.4071-1.308-0.4071l-10.2561,33.259c0,0,0.4698,0.1022,0.9064,0.2806
						C209.3558,241.0264,209.7999,241.1872,209.7999,241.1872z"/>
				</g>
				<g>
					<polygon fill="#E7B08E" points="219.1996,238.6553 228.7343,217.5018 226.342,216.4518 217.3433,237.8387 					"/>
				</g>
			</g>
			<g>
				<path fill="#FFFFFF" d="M10.8838,265.078l-1.4332,4.435c0,0,6.285,2.0152,12.5701,4.0305
					c6.2843,2.0977,12.4858,4.2702,12.4858,4.2702l1.4621-4.3764c0,0-6.245-2.1396-12.49-4.2792
					c-3.1522-1.0757-6.2899-2.0781-8.6508-2.8286C12.4614,265.5786,10.8838,265.078,10.8838,265.078z"/>
			</g>
			<g>
				<path fill="#FFFFFF" d="M19.2577,255.6377l-1.5146,4.4024c0,0,4.209,1.4038,8.418,2.8076
					c4.1708,1.4228,8.3415,2.8456,8.3415,2.8456l1.5147-4.4021c0,0-4.1708-1.4229-8.3416-2.8457
					C23.4668,257.0417,19.2577,255.6377,19.2577,255.6377z"/>
			</g>
		</g>
		<g>
			<g>
				<path fill="#FED6AA" d="M49.9212,335.4698c-2.6922,2.9726-4.5173,6.4008-5.7135,9.9184
					c-1.1765,3.5292-1.6488,7.1851-1.3442,10.7984c0.5667,7.2095,3.9403,14.0472,9.8833,18.9254
					c5.9431,4.8783,13.295,6.9179,20.2941,6.37c3.4874-0.2936,6.9486-1.1686,10.116-2.6907
					c3.1816-1.5041,6.0231-3.7256,8.4958-6.4497c11.599-13.1282,23.6137-25.6968,36.1125-37.2115
					c6.2219-5.8176,12.6381-11.1765,19.0942-16.3249c6.4986-5.0153,13.089-9.6719,19.7271-13.7352
					c1.4597-0.8671,2.9243-1.661,4.3818-2.5028l2.1857-1.2513l2.1869-1.0839c1.4551-0.7016,2.9105-1.5111,4.3562-2.1438
					l4.3204-1.8549c0.6013-0.288,1.2493-0.4961,1.8887-0.719l1.9162-0.6742c1.2762-0.4501,2.5498-0.9392,3.825-1.2896l3.8158-1.1773
					l3.6088-0.8297c0.5996-0.1243,1.1941-0.3234,1.7967-0.395l1.8022-0.2712c1.2022-0.1633,2.3925-0.455,3.6056-0.4955
					l3.6214-0.3173c1.221-0.0082,2.4405-0.0293,3.6606-0.0634c4.9078,0.0418,9.9393,0.5537,15.1772,1.5432
					c5.2307,0.9775,10.7106,2.5524,16.3828,4.4072c6.3598,2.1086,13.5008,1.5185,19.965-1.3282
					c6.4272-2.8777,11.9527-8.1437,14.8084-15.2883c2.8517-7.1346,2.6046-14.752-0.3399-21.334
					c-2.8965-6.5739-8.7448-12.1963-16.9807-14.9309c-7.334-2.3989-15.037-4.6393-23.2684-6.2009
					c-8.2119-1.5677-16.8432-2.5085-25.6275-2.5548l-6.6064,0.1352c-2.2034,0.1531-4.408,0.3545-6.6102,0.5501
					c-2.2104,0.1454-4.3795,0.5667-6.5647,0.8868l-3.2701,0.5256c-1.0941,0.1637-2.1469,0.455-3.2217,0.681
					c-2.1313,0.4896-4.2924,0.9692-6.3911,1.5012l-6.0076,1.8148c-2.0201,0.584-3.9539,1.2955-5.9048,1.9862l-2.9221,1.0443
					c-0.9735,0.3495-1.9496,0.6854-2.9043,1.1151l-6.7359,2.8914c-2.2217,0.9884-4.2952,2.0982-6.4449,3.1522l-3.1929,1.6086
					l-3.045,1.7205c-2.0203,1.1552-4.0734,2.2915-6.0585,3.4762c-8.9412,5.4583-17.2591,11.3671-25.2059,17.5087
					c-7.8233,6.2154-15.4065,12.591-22.5252,19.2343C75.7141,307.3709,62.4927,321.2478,49.9212,335.4698z"/>
			</g>
			<g>
				<path fill="#F9F9F9" d="M71.3018,320.7154l31.8778,30.4523c0,0-0.3495,0.3589-0.948,1.0062
					c-0.6007,0.6442-1.4588,1.5644-2.4886,2.6687c-2.0448,2.2288-4.8429,5.103-7.5131,8.1526
					c-2.6886,3.0238-5.4075,6.0093-7.3996,8.3087c-1.9849,2.3087-3.3082,3.8478-3.3082,3.8478
					c-1.9539,2.2853-4.2938,4.0368-6.8064,5.3308c-2.5058,1.301-5.2302,2.0888-8.0202,2.3493
					c-5.5774,0.5179-11.4263-1.0621-16.2281-4.9709c-4.8019-3.9088-7.4464-9.3531-7.8428-15.0836
					c-0.1995-2.8636,0.1607-5.7958,1.08-8.6254c0.9325-2.821,2.478-5.5085,4.5493-7.9281c0,0,1.3951-1.6217,3.4876-4.0543
					c2.1083-2.4232,4.9971-5.608,7.8516-8.8128c2.8258-3.2221,5.8426-6.329,8.0258-8.7067
					c1.1031-1.1819,2.0224-2.1667,2.6659-2.8562c0.6404-0.6913,1.0178-1.0793,1.0178-1.0793L71.3018,320.7154z"/>
			</g>
			<g>
				<path fill="#F2F2F2" d="M103.1804,351.1669l-31.8778-30.4524c0,0-0.4137,0.4377-0.8275,0.8755
					c-0.4105,0.4397-0.821,0.8794-0.821,0.8794l31.9984,30.3256c0,0,0.3809-0.4086,0.7618-0.8171
					C102.7933,351.5663,103.1804,351.1669,103.1804,351.1669z"/>
			</g>
			<g>
				<g>
					<path fill="#E7B08E" d="M129.2333,312.1808l-14.886-17.7984c0,0-0.4643,0.3824-0.9286,0.7647
						c-0.4524,0.3929-0.9047,0.7857-0.9047,0.7857l15.0099,17.694c0,0,0.4232-0.3682,0.8465-0.7365
						C128.8018,312.5356,129.2333,312.1808,129.2333,312.1808z"/>
				</g>
				<g>
					<polygon fill="#E7B08E" points="139.7451,311.1042 118.2337,283.7435 116.3308,285.2897 138.0485,312.487 					"/>
				</g>
				<g>
					<polygon fill="#E7B08E" points="143.2375,301.1852 129.5395,282.457 127.6072,283.9163 141.4679,302.5242 					"/>
				</g>
			</g>
			<g>
				<g>
					<polygon fill="#E7B08E" points="190.6577,276.8694 184.5143,254.4945 182.088,255.2294 188.6447,277.4866 					"/>
				</g>
				<g>
					<path fill="#E7B08E" d="M199.6753,280.7751l-6.0825-34.2688c0,0-0.6765,0.109-1.3529,0.218
						c-0.6758,0.1114-1.3359,0.2803-1.3359,0.2803l6.8992,34.1138c0,0,0.4632-0.129,0.9328-0.2013
						C199.2057,280.8461,199.6753,280.7751,199.6753,280.7751z"/>
				</g>
				<g>
					<polygon fill="#E7B08E" points="206.7481,274.0419 204.9248,250.9107 202.3319,251.1369 204.7178,274.2169 					"/>
				</g>
			</g>
			<g>
				<path fill="#FFFFFF" d="M52.4722,361.7415l0.402,4.6557c0,0,6.5782-0.6485,13.1878-1.1103
					c6.593-0.4904,13.1018-0.8839,13.1018-0.8839l-0.3113-4.5734c0,0-1.6465,0.087-4.1161,0.2174
					c-2.4664,0.1438-5.7321,0.3802-9.0298,0.6207c-3.3066,0.2587-6.6132,0.5174-9.0931,0.7115
					C54.1287,361.5966,52.4722,361.7415,52.4722,361.7415z"/>
			</g>
			<g>
				<path fill="#FFFFFF" d="M56.6039,349.7889l0.3094,4.6725c0,0,4.4065-0.342,8.8131-0.684
					c4.4197-0.3026,8.8258-0.5332,8.8258-0.5332l-0.2589-4.6328c0,0-4.4178,0.2626-8.8355,0.5252
					c-2.2214,0.1394-4.4464,0.2926-6.0926,0.4303C57.7085,349.7001,56.6039,349.7889,56.6039,349.7889z"/>
			</g>
		</g>
		<g>
			<g>
				<path fill="#FED6AA" d="M108.799,442.9345c-0.8452,3.9204-0.7117,7.8019,0.0111,11.4463
					c0.7457,3.6446,2.1646,7.0468,4.2351,10.0238c4.0955,5.9603,10.4359,10.1951,18.0219,11.4483
					c7.5859,1.2532,14.9728-0.6564,20.7603-4.6304c2.8733-1.998,5.4334-4.4863,7.4154-7.3883
					c2.0033-2.8934,3.3534-6.238,4.1328-9.8335c3.481-17.1689,7.6018-34.061,12.6688-50.2824
					c2.4795-8.1492,5.3567-15.9982,8.3736-23.6849c3.1203-7.5927,6.4995-14.9206,10.2166-21.7585
					c0.8307-1.4808,1.702-2.9007,2.5433-4.3584l1.2672-2.1766l1.3519-2.0321c0.9094-1.3352,1.765-2.7639,2.7007-4.0347
					l2.8141-3.7666c0.3768-0.55,0.8339-1.0542,1.2762-1.567l1.3224-1.5421c0.8802-1.0279,1.7386-2.0883,2.6678-3.0294l2.7159-2.9276
					l2.7105-2.5229c0.4572-0.4075,0.8724-0.8771,1.3584-1.2404l1.4252-1.1359c0.9595-0.7426,1.8445-1.5903,2.8748-2.232
					l2.9776-2.0855c1.0533-0.6176,2.0989-1.2456,3.1385-1.8852c4.2711-2.4177,8.8845-4.4901,13.9153-6.2522
					c5.0187-1.7688,10.5517-3.1449,16.3914-4.3747c6.562-1.3538,12.4512-5.4353,16.626-11.1328
					c4.1273-5.7057,6.2795-13.029,5.1803-20.6443c-1.0977-7.6046-5.1203-14.0779-10.9614-18.3059
					c-5.7954-4.2449-13.6714-6.19-22.1712-4.4402c-7.5509,1.5895-15.3421,3.5008-23.2516,6.2641
					c-7.8955,2.7483-15.8409,6.2493-23.4715,10.6013l-5.6537,3.4203c-1.8317,1.2343-3.6402,2.511-5.4495,3.7815
					c-1.8416,1.2312-3.5094,2.6806-5.2417,4.0504l-2.5692,2.0902c-0.8657,0.6888-1.6318,1.4675-2.4495,2.2007
					c-1.601,1.4896-3.2328,2.9856-4.7843,4.4956l-4.2952,4.5754c-1.4574,1.5157-2.7764,3.0989-4.1206,4.6725l-2.0085,2.3654
					c-0.6683,0.7894-1.3457,1.5684-1.9576,2.4179l-4.3878,5.872c-1.4299,1.9668-2.6706,3.9647-4.0054,5.9524l-1.9608,2.9896
					l-1.7768,3.0125c-1.172,2.0106-2.3819,4.0212-3.5087,6.0397c-5.0142,9.1976-9.2633,18.4738-13.0746,27.7659
					c-3.6674,9.2943-7.0469,18.6074-9.8903,27.9199C117.087,405.7038,112.5753,424.3322,108.799,442.9345z"/>
			</g>
			<g>
				<path fill="#F9F9F9" d="M119.938,419.4666l42.8331,10.4337c0,0-0.1232,0.4855-0.3179,1.3454
					c-0.1981,0.8582-0.4812,2.0842-0.8209,3.5555c-0.6565,2.9526-1.6426,6.8408-2.4303,10.8169
					c-0.8165,3.963-1.6784,7.9079-2.2539,10.8953c-0.5646,2.9918-0.9411,4.9863-0.9411,4.9863
					c-0.5495,2.9561-1.7002,5.6429-3.2291,8.0198c-1.5196,2.3795-3.4851,4.424-5.7711,6.0446
					c-4.5713,3.2372-10.4265,4.7933-16.5395,3.809c-6.1129-0.9842-11.1253-4.3769-14.3338-9.1415
					c-1.6046-2.3802-2.7587-5.0997-3.3774-8.0098c-0.6029-2.9093-0.6083-6.0095-0.0242-9.1405c0,0,0.3973-2.102,0.9932-5.2549
					c0.6142-3.1527,1.5237-7.3552,2.3933-11.5578c0.8362-4.2033,1.8954-8.4024,2.5972-11.5531
					c0.3644-1.5751,0.6681-2.8877,0.8807-3.8065c0.2089-0.9189,0.3418-1.4436,0.3418-1.4436L119.938,419.4666z"/>
			</g>
			<g>
				<path fill="#F2F2F2" d="M162.7714,429.8992l-42.8331-10.4338c0,0-0.1395,0.586-0.2789,1.1719
					c-0.1357,0.5861-0.2713,1.1721-0.2713,1.1721l42.8742,10.2637c0,0,0.1256-0.5443,0.2512-1.0886
					C162.6359,430.4387,162.7714,429.8992,162.7714,429.8992z"/>
			</g>
			<g>
				<g>
					<path fill="#E7B08E" d="M165.8409,383.1098l-21.7909-7.9709c0,0-0.2109,0.5633-0.4218,1.1266
						c-0.1953,0.5664-0.3907,1.1328-0.3907,1.1328l21.846,7.8185c0,0,0.1824-0.5305,0.3648-1.061
						C165.6447,383.6328,165.8409,383.1098,165.8409,383.1098z"/>
				</g>
				<g>
					<polygon fill="#E7B08E" points="174.4062,376.9215 142.0965,363.9822 141.2215,366.2726 173.6282,378.9673 					"/>
				</g>
				<g>
					<polygon fill="#E7B08E" points="172.4711,366.5852 151.2443,357.2151 150.3004,359.4451 171.6082,368.6296 					"/>
				</g>
			</g>
			<g>
				<g>
					<polygon fill="#E7B08E" points="201.3803,321.817 184.8724,305.5115 183.1387,307.3611 199.9457,323.358 					"/>
				</g>
				<g>
					<path fill="#E7B08E" d="M211.1427,320.6905l-22.4021-26.6363c0,0-0.5313,0.4326-1.0627,0.8653
						c-0.5296,0.4344-1.0167,0.9108-1.0167,0.9108l23.032,26.0936c0,0,0.3367-0.3433,0.7072-0.6407
						C210.7715,320.9868,211.1427,320.6905,211.1427,320.6905z"/>
				</g>
				<g>
					<polygon fill="#E7B08E" points="213.9012,311.323 200.7565,292.2025 198.6241,293.6949 212.2304,312.4897 					"/>
				</g>
			</g>
			<g>
				<path fill="#FFFFFF" d="M124.144,464.411l2.6759,3.831c0,0,5.3727-3.8507,10.8658-7.5554
					c5.4645-3.7212,10.9046-7.3163,10.9046-7.3163l-2.5563-3.805c0,0-1.3824,0.8985-3.456,2.2464
					c-2.0641,1.3577-4.774,3.1952-7.5097,5.0524c-2.7342,1.8773-5.4685,3.7547-7.5192,5.1627
					C125.5061,463.4573,124.144,464.411,124.144,464.411z"/>
			</g>
			<g>
				<path fill="#FFFFFF" d="M121.746,451.994l2.6042,3.8918c0,0,3.6452-2.4994,7.2904-4.9989
					c3.6763-2.4718,7.3768-4.8746,7.3768-4.8746l-2.5405-3.8827c0,0-3.6946,2.4363-7.3892,4.8726
					c-1.8541,1.2314-3.7044,2.4766-5.0612,3.4189C122.6581,451.3647,121.746,451.994,121.746,451.994z"/>
			</g>
		</g>
		<g>
			<g>
				<path fill="#FED6AA" d="M240.437,540.6868c1.7489,3.5554,4.1149,6.5981,6.8857,9.0364
					c2.8124,2.4064,6.0459,4.1982,9.4615,5.3265c6.8391,2.2569,14.4437,1.8082,21.2505-1.7673
					c6.8069-3.5755,11.5488-9.5609,13.7596-16.2556c1.1075-3.3505,1.566-6.8785,1.3453-10.4037
					c-0.1704-3.5398-1.038-7.0694-2.6834-10.4131c-7.7647-15.8814-15.1152-31.8865-21.4406-48.0023
					c-6.3599-16.097-11.8817-32.3091-15.8185-48.3295c-0.6177-2.1913-0.9805-4.3471-1.4686-6.5182l-0.6954-3.2508
					c-0.2383-1.0845-0.4766-2.1687-0.6274-3.2352l-1.0638-6.4241c-0.2055-1.0769-0.3186-2.1295-0.4297-3.1805l-0.3592-3.1579
					c-0.9007-8.391-1.1869-16.574-0.4692-24.1758l0.5001-3.8489l0.2349-1.9244c0.1023-0.6285,0.2523-1.2316,0.3718-1.8492
					l0.7306-3.6888c0.342-1.1754,0.6714-2.3528,0.9885-3.5344c0.2686-1.2064,0.736-2.3095,1.1317-3.4457
					c0.417-1.1259,0.7421-2.2952,1.2807-3.3611l1.4418-3.2798c0.5731-1.0541,1.133-2.1135,1.6808-3.1805
					c2.3726-4.1945,5.2167-8.253,8.5996-12.2538c3.3669-4.0004,7.4087-7.919,11.8089-11.8683
					c4.9594-4.4122,8.013-10.8633,8.8012-17.8781c0.7402-6.9975-1.0257-14.4238-5.7623-20.4876
					c-4.7295-6.0549-11.4341-9.6784-18.6101-10.4401c-7.1428-0.8011-14.9699,1.4475-21.5028,7.2538
					c-5.7835,5.1896-11.6179,10.8062-17.0935,17.2706c-5.4715,6.4413-10.5705,13.6-14.9095,21.3402l-3.1002,5.9076
					c-0.9445,2.0157-1.8244,4.0664-2.7194,6.107c-0.9409,2.0273-1.6287,4.1362-2.3877,6.224
					c-0.7362,2.0935-1.5224,4.1819-2.0623,6.3074l-1.7446,6.3642c-0.4593,2.1227-0.8792,4.2483-1.3036,6.376
					c-0.2031,1.0627-0.4342,2.1305-0.6065,3.1902l-0.4225,3.1678c-0.2713,2.1112-0.5574,4.2303-0.7899,6.3379
					c-1.1392,12.2197-0.6625,24.0111,0.5512,35.3751l0.4888,4.2518c0.1585,1.4207,0.3227,2.8388,0.5715,4.2078l1.3719,8.292
					c0.2108,1.3946,0.4993,2.7401,0.7893,4.0852l0.8588,4.0436c0.5964,2.6805,1.0959,5.4284,1.8137,8.0297
					c4.7804,19.4391,11.1159,37.8417,18.1575,55.6881C224.2653,506.5828,232.1727,523.7782,240.437,540.6868z"/>
			</g>
			<g>
				<path fill="#F9F9F9" d="M234.9393,515.5287l40.1571-18.1919c0,0,3.4294,7.3683,6.8588,14.7367
					c3.6027,7.322,7.2054,14.644,7.2054,14.644c2.7027,5.4078,3.1192,11.3382,1.4127,16.7074
					c-1.6908,5.3586-5.4264,10.1322-10.8984,13.0294c-5.472,2.8973-11.5132,3.2116-16.9318,1.3602
					c-5.3991-1.8587-10.2463-5.8302-13.0734-11.5034c0,0-3.7591-7.6411-7.5181-15.2821
					c-3.6064-7.7507-7.2127-15.5013-7.2127-15.5013L234.9393,515.5287z"/>
			</g>
			<g>
				<polygon fill="#F2F2F2" points="275.0959,497.3358 234.9388,515.5277 235.9445,517.691 276.0475,499.3801 				"/>
			</g>
			<g>
				<g>
					<polygon fill="#E7B08E" points="247.9708,458.5041 226.1193,466.3074 226.9477,468.5337 248.7618,460.6266 					"/>
				</g>
				<g>
					<polygon fill="#E7B08E" points="250.5668,448.1295 217.5403,459.1112 218.3117,461.4023 251.2764,450.2363 					"/>
				</g>
				<g>
					<polygon fill="#E7B08E" points="242.3103,441.3885 220.1237,448.1808 220.8099,450.4769 242.9514,443.5392 					"/>
				</g>
			</g>
			<g>
				<g>
					<polygon fill="#E7B08E" points="234.0006,355.437 211.3991,350.1884 210.8874,352.7157 233.6002,357.4598 					"/>
				</g>
				<g>
					<path fill="#E7B08E" d="M241.7446,349.4268l-32.9979-11.0673c0,0-0.2281,0.6489-0.4562,1.2978
						c-0.2456,0.6454-0.4071,1.308-0.4071,1.308l33.259,10.2561c0,0,0.1022-0.4698,0.2806-0.9065
						C241.5838,349.8709,241.7446,349.4268,241.7446,349.4268z"/>
				</g>
				<g>
					<polygon fill="#E7B08E" points="239.2127,340.0271 218.0592,330.4925 217.0092,332.8848 238.3961,341.8835 					"/>
				</g>
			</g>
			<g>
				<path fill="#FFFFFF" d="M265.6353,548.3432l4.435,1.4332c0,0,2.0152-6.285,4.0305-12.5701
					c2.0977-6.2842,4.2702-12.4858,4.2702-12.4858l-4.3764-1.4622c0,0-2.1396,6.245-4.2792,12.49
					c-1.0757,3.1522-2.0781,6.2899-2.8286,8.6508C266.1359,546.7656,265.6353,548.3432,265.6353,548.3432z"/>
			</g>
			<g>
				<path fill="#FFFFFF" d="M256.1951,539.9694l4.4024,1.5145c0,0,1.4038-4.209,2.8077-8.418
					c1.4228-4.1708,2.8456-8.3416,2.8456-8.3416l-4.4022-1.5147c0,0-1.4228,4.1708-2.8457,8.3416
					C257.599,535.7603,256.1951,539.9694,256.1951,539.9694z"/>
			</g>
		</g>
		<g>
			<g>
				<path fill="#FED6AA" d="M336.0271,509.3058c2.9726,2.6921,6.4008,4.5172,9.9184,5.7135
					c3.5292,1.1765,7.1851,1.6488,10.7984,1.3441c7.2095-0.5668,14.0471-3.9403,18.9254-9.8834s6.9178-13.295,6.3699-20.2941
					c-0.2936-3.4874-1.1686-6.9486-2.6907-10.116c-1.5042-3.1816-3.7256-6.0231-6.4498-8.4958
					c-13.1282-11.599-25.6968-23.6136-37.2114-36.1125c-5.8176-6.2219-11.1765-12.6381-16.325-19.0942
					c-5.0153-6.4986-9.6718-13.089-13.7352-19.7271c-0.8671-1.4598-1.661-2.9243-2.5028-4.3818l-1.2514-2.1857l-1.0839-2.1869
					c-0.7016-1.4552-1.5112-2.9106-2.1438-4.3562l-1.855-4.3204c-0.288-0.6014-0.496-1.2493-0.7189-1.8887l-0.6742-1.9161
					c-0.4501-1.2762-0.9392-2.5497-1.2895-3.8249l-1.1773-3.8156l-0.8296-3.6088c-0.1243-0.5997-0.3234-1.1941-0.395-1.7967
					l-0.2711-1.8022c-0.1634-1.2022-0.455-2.3925-0.4955-3.6057l-0.3173-3.6215c-0.0081-1.221-0.0293-2.4406-0.0634-3.6607
					c0.0418-4.9078,0.5538-9.9394,1.5433-15.1773c0.9775-5.2308,2.5524-10.7107,4.4072-16.3829
					c2.1086-6.3598,1.5185-13.5009-1.3283-19.9651c-2.8777-6.4272-8.1439-11.9527-15.2885-14.8082
					c-7.1346-2.8516-14.752-2.6045-21.334,0.3401c-6.5739,2.8966-12.1962,8.7449-14.9307,16.9807
					c-2.3989,7.334-4.6392,15.0369-6.2009,23.2683c-1.5677,8.2118-2.5085,16.8431-2.5549,25.6273l0.1351,6.6064
					c0.153,2.2034,0.3544,4.408,0.55,6.6101c0.1454,2.2104,0.5667,4.3795,0.8867,6.5646l0.5256,3.2701
					c0.1636,1.0941,0.455,2.1469,0.681,3.2217c0.4895,2.1313,0.9691,4.2924,1.5011,6.3911l1.8148,6.0078
					c0.584,2.0201,1.2955,3.954,1.9863,5.905l1.0443,2.9222c0.3495,0.9735,0.6854,1.9497,1.1152,2.9044l2.8914,6.7359
					c0.9884,2.2217,2.0982,4.2952,3.1522,6.4449l1.6087,3.1929l1.7205,3.045c1.1552,2.0203,2.2915,4.0734,3.4762,6.0585
					c5.4583,8.9412,11.3671,17.2591,17.5086,25.2059c6.2155,7.8233,12.591,15.4065,19.2343,22.5252
					C307.9282,483.5128,321.8051,496.7343,336.0271,509.3058z"/>
			</g>
			<g>
				<path fill="#F9F9F9" d="M321.2727,487.9252l30.4523-31.8778c0,0,0.3589,0.3495,1.0062,0.948
					c0.6442,0.6007,1.5644,1.4589,2.6687,2.4886c2.2288,2.0448,5.103,4.8429,8.1526,7.5131
					c3.0238,2.6886,6.0092,5.4075,8.3087,7.3995c2.3087,1.9849,3.8478,3.3081,3.8478,3.3081
					c2.2853,1.9539,4.0368,4.2938,5.3309,6.8063c1.3009,2.5058,2.0888,5.2302,2.3493,8.0202
					c0.5179,5.5774-1.0621,11.4263-4.9709,16.2281c-3.9088,4.8019-9.3531,7.4464-15.0836,7.8428
					c-2.8636,0.1995-5.7958-0.1606-8.6254-1.08c-2.821-0.9325-5.5085-2.4779-7.9281-4.5492c0,0-1.6217-1.3951-4.0543-3.4876
					c-2.4232-2.1083-5.608-4.9971-8.8128-7.8516c-3.2221-2.8258-6.329-5.8426-8.7067-8.0258
					c-1.1819-1.1031-2.1667-2.0224-2.8562-2.6659c-0.6913-0.6404-1.0793-1.0178-1.0793-1.0178L321.2727,487.9252z"/>
			</g>
			<g>
				<path fill="#F2F2F2" d="M351.7242,456.0466l-30.4524,31.8778c0,0,0.4377,0.4137,0.8755,0.8275
					c0.4397,0.4105,0.8794,0.821,0.8794,0.821l30.3256-31.9984c0,0-0.4086-0.3809-0.8171-0.7618
					C352.1236,456.4337,351.7242,456.0466,351.7242,456.0466z"/>
			</g>
			<g>
				<g>
					<path fill="#E7B08E" d="M312.7381,429.9937l-17.7984,14.886c0,0,0.3824,0.4643,0.7647,0.9286
						c0.3929,0.4524,0.7857,0.9047,0.7857,0.9047l17.694-15.0099c0,0-0.3682-0.4232-0.7365-0.8465
						C313.0929,430.4251,312.7381,429.9937,312.7381,429.9937z"/>
				</g>
				<g>
					<polygon fill="#E7B08E" points="311.6616,419.4818 284.3008,440.9932 285.847,442.8961 313.0443,421.1785 					"/>
				</g>
				<g>
					<polygon fill="#E7B08E" points="301.7425,415.9895 283.0143,429.6874 284.4736,431.6198 303.0815,417.759 					"/>
				</g>
			</g>
			<g>
				<g>
					<polygon fill="#E7B08E" points="277.4267,368.5694 255.0517,374.7126 255.7866,377.1389 278.0439,370.5823 					"/>
				</g>
				<g>
					<path fill="#E7B08E" d="M281.3325,359.5518l-34.2689,6.082c0,0,0.109,0.6765,0.218,1.353
						c0.1114,0.6758,0.2803,1.3359,0.2803,1.3359l34.1138-6.8988c0,0-0.129-0.4632-0.2013-0.9328
						C281.4035,360.0215,281.3325,359.5518,281.3325,359.5518z"/>
				</g>
				<g>
					<polygon fill="#E7B08E" points="274.5994,352.4789 251.4682,354.302 251.6944,356.8949 274.7744,354.5092 					"/>
				</g>
			</g>
			<g>
				<path fill="#FFFFFF" d="M362.2989,506.7547l4.6557-0.402c0,0-0.6485-6.5782-1.1104-13.1878
					c-0.4904-6.593-0.8839-13.1018-0.8839-13.1018l-4.5734,0.3113c0,0,0.087,1.6465,0.2174,4.1161
					c0.1438,2.4664,0.3802,5.7321,0.6207,9.0298c0.2587,3.3066,0.5175,6.6132,0.7115,9.0931
					C362.154,505.0982,362.2989,506.7547,362.2989,506.7547z"/>
			</g>
			<g>
				<path fill="#FFFFFF" d="M350.3463,502.623l4.6725-0.3094c0,0-0.342-4.4065-0.684-8.813
					c-0.3026-4.4196-0.5332-8.8258-0.5332-8.8258l-4.6328,0.2589c0,0,0.2626,4.4178,0.5252,8.8355
					c0.1394,2.2214,0.2927,4.4464,0.4303,6.0926C350.2574,501.5185,350.3463,502.623,350.3463,502.623z"/>
			</g>
		</g>
		<g>
			<g>
				<path fill="#FED6AA" d="M443.4922,450.428c3.9204,0.8452,7.8019,0.7116,11.4463-0.0111
					c3.6447-0.7457,7.0468-2.1646,10.0238-4.2351c5.9603-4.0956,10.195-10.436,11.4482-18.0219
					c1.2531-7.5859-0.6565-14.9728-4.6305-20.7602c-1.998-2.8733-4.4863-5.4333-7.3883-7.4153
					c-2.8934-2.0033-6.238-3.3534-9.8336-4.1327c-17.1689-3.4809-34.061-7.6016-50.2824-12.6686
					c-8.1492-2.4795-15.9982-5.3567-23.6849-8.3735c-7.5927-3.1203-14.9206-6.4994-21.7586-10.2166
					c-1.4808-0.8307-2.9007-1.7021-4.3585-2.5433l-2.1766-1.2672l-2.0321-1.352c-1.3352-0.9094-2.764-1.7651-4.0347-2.7007
					l-3.7667-2.8141c-0.55-0.3768-1.0542-0.8339-1.567-1.2762l-1.542-1.3224c-1.0279-0.8802-2.0883-1.7385-3.0293-2.6678
					l-2.9275-2.7159l-2.5229-2.7105c-0.4075-0.4572-0.8772-0.8724-1.2404-1.3585l-1.1359-1.4252
					c-0.7426-0.9595-1.5903-1.8445-2.232-2.8748l-2.0855-2.9777c-0.6176-1.0533-1.2456-2.0989-1.8852-3.1385
					c-2.4177-4.2712-4.4901-8.8846-6.2521-13.9155c-1.7688-5.0187-3.1449-10.5518-4.3746-16.3915
					c-1.3538-6.562-5.4353-12.4513-11.1328-16.6261c-5.7057-4.1273-13.0291-6.2795-20.6443-5.1803
					c-7.6046,1.0977-14.0779,5.1203-18.3059,10.9614c-4.2449,5.7954-6.19,13.6714-4.4402,22.1711
					c1.5895,7.5509,3.5007,15.3421,6.264,23.2515c2.7483,7.8955,6.2492,15.8409,10.6011,23.4715l3.4203,5.6537
					c1.2342,1.8318,2.5109,3.6402,3.7814,5.4496c1.2311,1.8416,2.6805,3.5095,4.0503,5.2417l2.0902,2.5692
					c0.6887,0.8657,1.4675,1.6318,2.2006,2.4496c1.4896,1.601,2.9855,3.2327,4.4955,4.7843l4.5755,4.2953
					c1.5157,1.4575,3.0989,2.7765,4.6726,4.1207l2.3655,2.0085c0.7894,0.6683,1.5684,1.3458,2.4179,1.9577l5.8721,4.3878
					c1.9669,1.4299,3.9648,2.6707,5.9525,4.0055l2.9897,1.9609l3.0125,1.7768c2.0106,1.172,4.0213,2.382,6.0398,3.5088
					c9.1976,5.0142,18.4738,9.2632,27.7659,13.0745c9.2944,3.6674,18.6074,7.0468,27.92,9.8902
					C406.2614,442.1402,424.8898,446.6518,443.4922,450.428z"/>
			</g>
			<g>
				<path fill="#F9F9F9" d="M420.0242,439.2891l10.4335-42.8332c0,0,0.4855,0.1232,1.3454,0.3179
					c0.8582,0.1982,2.0842,0.4812,3.5555,0.8209c2.9526,0.6565,6.8408,1.6426,10.8169,2.4303
					c3.963,0.8165,7.9079,1.6783,10.8953,2.2538c2.9918,0.5646,4.9864,0.9411,4.9864,0.9411
					c2.9561,0.5494,5.6429,1.7002,8.0198,3.229c2.3795,1.5196,4.4241,3.485,6.0446,5.771
					c3.2372,4.5713,4.7934,10.4265,3.8091,16.5394c-0.9842,6.1129-4.3768,11.1254-9.1414,14.3339
					c-2.3802,1.6046-5.0997,2.7587-8.0098,3.3774c-2.9093,0.6029-6.0095,0.6083-9.1405,0.0243c0,0-2.102-0.3973-5.2549-0.9932
					c-3.1527-0.6142-7.3552-1.5236-11.5579-2.3933c-4.2033-0.8362-8.4024-1.8953-11.5531-2.5972
					c-1.5751-0.3644-2.8877-0.6681-3.8065-0.8806c-0.9189-0.2089-1.4436-0.3418-1.4436-0.3418L420.0242,439.2891z"/>
			</g>
			<g>
				<path fill="#F2F2F2" d="M430.4566,396.4556l-10.4336,42.8332c0,0,0.5859,0.1395,1.1719,0.2789
					c0.5861,0.1357,1.1721,0.2713,1.1721,0.2713l10.2635-42.8742c0,0-0.5443-0.1256-1.0886-0.2512
					C430.9961,396.5912,430.4566,396.4556,430.4566,396.4556z"/>
			</g>
			<g>
				<g>
					<path fill="#E7B08E" d="M383.6672,393.3863l-7.9708,21.7909c0,0,0.5633,0.2109,1.1266,0.4218
						c0.5664,0.1953,1.1328,0.3907,1.1328,0.3907l7.8185-21.846c0,0-0.5305-0.1824-1.061-0.3648
						C384.1902,393.5826,383.6672,393.3863,383.6672,393.3863z"/>
				</g>
				<g>
					<polygon fill="#E7B08E" points="377.4789,384.8211 364.5396,417.1309 366.8301,418.0058 379.5247,385.5991 					"/>
				</g>
				<g>
					<polygon fill="#E7B08E" points="367.1425,386.7562 357.7726,407.983 360.0025,408.9269 369.187,387.6191 					"/>
				</g>
			</g>
			<g>
				<g>
					<polygon fill="#E7B08E" points="322.3741,357.8469 306.0685,374.3546 307.9181,376.0883 323.9151,359.2815 					"/>
				</g>
				<g>
					<path fill="#E7B08E" d="M321.2478,348.0845l-26.6366,22.4018c0,0,0.4326,0.5313,0.8653,1.0627
						c0.4344,0.5296,0.9107,1.0168,0.9107,1.0168l26.0939-23.0316c0,0-0.3433-0.3367-0.6407-0.7072
						C321.5441,348.4557,321.2478,348.0845,321.2478,348.0845z"/>
				</g>
				<g>
					<polygon fill="#E7B08E" points="311.8803,345.3258 292.7597,358.4703 294.252,360.6028 313.047,346.9966 					"/>
				</g>
			</g>
			<g>
				<path fill="#FFFFFF" d="M464.9686,435.0828l3.831-2.676c0,0-3.8507-5.3727-7.5555-10.8658
					c-3.7212-5.4645-7.3164-10.9045-7.3164-10.9045l-3.805,2.5563c0,0,0.8985,1.3824,2.2464,3.456
					c1.3577,2.0641,3.1953,4.774,5.0525,7.5096c1.8773,2.7343,3.7547,5.4685,5.1627,7.5192
					C464.0149,433.7208,464.9686,435.0828,464.9686,435.0828z"/>
			</g>
			<g>
				<path fill="#FFFFFF" d="M452.5515,437.481l3.8918-2.6042c0,0-2.4995-3.6451-4.9989-7.2903
					c-2.4719-3.6763-4.8747-7.3768-4.8747-7.3768l-3.8827,2.5406c0,0,2.4363,3.6946,4.8726,7.3892
					c1.2314,1.8541,2.4766,3.7043,3.4189,5.0611C451.9224,436.5688,452.5515,437.481,452.5515,437.481z"/>
			</g>
		</g>
		<g>
			<g>
				<path fill="#FED6AA" d="M541.2444,318.7899c3.5554-1.7489,6.5982-4.1149,9.0364-6.8857
					c2.4064-2.8124,4.1982-6.0458,5.3265-9.4615c2.2569-6.8391,1.8082-14.4437-1.7673-21.2505
					c-3.5756-6.8069-9.5609-11.5488-16.2556-13.7596c-3.3505-1.1075-6.8785-1.566-10.4037-1.3453
					c-3.5399,0.1703-7.0695,1.038-10.4132,2.6834c-15.8814,7.7647-31.8865,15.1151-48.0023,21.4406
					c-16.097,6.3599-32.3091,11.8816-48.3295,15.8185c-2.1913,0.6177-4.3471,0.9805-6.5182,1.4686l-3.2509,0.6954
					c-1.0845,0.2383-2.1687,0.4766-3.2352,0.6274l-6.4241,1.0638c-1.0769,0.2055-2.1295,0.3186-3.1806,0.4297l-3.1579,0.3592
					c-8.391,0.9007-16.5741,1.1869-24.1758,0.4692l-3.8489-0.5001l-1.9244-0.2349c-0.6286-0.1023-1.2316-0.2523-1.8492-0.3718
					l-3.6888-0.7306c-1.1754-0.342-2.3529-0.6714-3.5345-0.9885c-1.2064-0.2686-2.3095-0.736-3.4457-1.1317
					c-1.1259-0.417-2.2953-0.7421-3.3611-1.2806l-3.2798-1.4419c-1.0541-0.573-2.1135-1.133-3.1805-1.6808
					c-4.1945-2.3726-8.253-5.2166-12.2538-8.5995c-4.0004-3.3669-7.919-7.4086-11.8683-11.8088
					c-4.4121-4.9594-10.8633-8.0129-17.8781-8.8012c-6.9975-0.7402-14.4238,1.0256-20.4876,5.7622
					c-6.0549,4.7294-9.6784,11.4341-10.4401,18.6101c-0.8011,7.1428,1.4475,14.97,7.2538,21.5029
					c5.1896,5.7835,10.8063,11.6179,17.2707,17.0936c6.4413,5.4715,13.6001,10.5705,21.3402,14.9095l5.9077,3.1002
					c2.0157,0.9445,4.0664,1.8244,6.107,2.7194c2.0273,0.9409,4.1362,1.6287,6.224,2.3877
					c2.0935,0.7363,4.1819,1.5224,6.3074,2.0623l6.3642,1.7446c2.1227,0.4593,4.2484,0.8792,6.376,1.3036
					c1.0627,0.2031,2.1305,0.4342,3.1902,0.6065l3.1678,0.4225c2.1112,0.2712,4.2303,0.5574,6.3379,0.7898
					c12.2198,1.1392,24.0112,0.6625,35.3752-0.5512l4.2519-0.4888c1.4207-0.1585,2.8388-0.3228,4.2079-0.5715l8.292-1.3719
					c1.3946-0.2108,2.7401-0.4993,4.0852-0.7893l4.0436-0.8588c2.6805-0.5964,5.4284-1.0959,8.0298-1.8137
					c19.4391-4.7804,37.8417-11.1159,55.6881-18.1575C507.1404,334.9616,524.3358,327.0541,541.2444,318.7899z"/>
			</g>
			<g>
				<path fill="#F9F9F9" d="M516.0864,324.2876l-18.192-40.1571c0,0,7.3684-3.4294,14.7368-6.8587
					c7.3219-3.6027,14.6439-7.2054,14.6439-7.2054c5.4078-2.7026,11.3382-3.1192,16.7075-1.4127
					c5.3586,1.6908,10.1321,5.4264,13.0294,10.8985c2.8973,5.472,3.2116,11.5132,1.3602,16.9318
					c-1.8588,5.3991-5.8302,10.2463-11.5034,13.0734c0,0-7.6411,3.7591-15.2821,7.5181
					c-7.7507,3.6064-15.5013,7.2127-15.5013,7.2127L516.0864,324.2876z"/>
			</g>
			<g>
				<polygon fill="#F2F2F2" points="497.8935,284.131 516.0853,324.2881 518.2487,323.2824 499.9377,283.1794 				"/>
			</g>
			<g>
				<g>
					<polygon fill="#E7B08E" points="459.0617,311.2561 466.865,333.1075 469.0913,332.2791 461.1843,310.465 					"/>
				</g>
				<g>
					<polygon fill="#E7B08E" points="448.6871,308.66 459.6688,341.6865 461.9599,340.9151 450.7939,307.9504 					"/>
				</g>
				<g>
					<polygon fill="#E7B08E" points="441.9462,316.9165 448.7384,339.1031 451.0345,338.417 444.0968,316.2755 					"/>
				</g>
			</g>
			<g>
				<g>
					<polygon fill="#E7B08E" points="355.9944,325.2262 350.7458,347.8277 353.2731,348.3394 358.0172,325.6266 					"/>
				</g>
				<g>
					<path fill="#E7B08E" d="M349.9843,317.4822l-11.0673,32.9979c0,0,0.6489,0.2281,1.2978,0.4562
						c0.6454,0.2456,1.308,0.4071,1.308,0.4071l10.2561-33.259c0,0-0.4699-0.1022-0.9065-0.2806
						C350.4283,317.643,349.9843,317.4822,349.9843,317.4822z"/>
				</g>
				<g>
					<polygon fill="#E7B08E" points="340.5845,320.0142 331.0499,341.1676 333.4423,342.2177 342.4409,320.8307 					"/>
				</g>
			</g>
			<g>
				<path fill="#FFFFFF" d="M548.9009,293.5915l1.4332-4.435c0,0-6.285-2.0152-12.5701-4.0304
					c-6.2842-2.0977-12.4858-4.2702-12.4858-4.2702l-1.4622,4.3764c0,0,6.245,2.1396,12.49,4.2792
					c3.1522,1.0757,6.2899,2.078,8.6508,2.8286C547.3232,293.0909,548.9009,293.5915,548.9009,293.5915z"/>
			</g>
			<g>
				<path fill="#FFFFFF" d="M540.527,303.0318l1.5145-4.4024c0,0-4.209-1.4038-8.418-2.8076
					c-4.1708-1.4228-8.3416-2.8456-8.3416-2.8456l-1.5146,4.4022c0,0,4.1708,1.4228,8.3416,2.8456
					C536.3179,301.6278,540.527,303.0318,540.527,303.0318z"/>
			</g>
		</g>
		<g>
			<g>
				<path fill="#FED6AA" d="M509.8631,223.1997c2.6922-2.9726,4.5173-6.4008,5.7136-9.9184
					c1.1765-3.5292,1.6488-7.1851,1.3441-10.7984c-0.5668-7.2095-3.9403-14.0471-9.8833-18.9254
					c-5.9431-4.8783-13.2951-6.9179-20.2942-6.37c-3.4873,0.2936-6.9485,1.1686-10.116,2.6908
					c-3.1816,1.5041-6.0231,3.7256-8.4958,6.4497c-11.599,13.1282-23.6136,25.6968-36.1125,37.2115
					c-6.2219,5.8176-12.6381,11.1765-19.0942,16.325c-6.4986,5.0153-13.089,9.6719-19.7271,13.7352
					c-1.4597,0.8671-2.9243,1.661-4.3818,2.5028l-2.1857,1.2514l-2.1869,1.0839c-1.4551,0.7016-2.9105,1.5111-4.3562,2.1438
					l-4.3204,1.8549c-0.6013,0.288-1.2492,0.4961-1.8887,0.719l-1.9162,0.6742c-1.2762,0.4501-2.5498,0.9392-3.825,1.2896
					l-3.8157,1.1773l-3.6088,0.8296c-0.5996,0.1243-1.1941,0.3234-1.7967,0.395l-1.8022,0.2711
					c-1.2023,0.1634-2.3925,0.455-3.6057,0.4955l-3.6215,0.3173c-1.221,0.0082-2.4405,0.0293-3.6606,0.0634
					c-4.9078-0.0418-9.9393-0.5538-15.1772-1.5432c-5.2308-0.9775-10.7106-2.5523-16.3828-4.4072
					c-6.3598-2.1086-13.5008-1.5185-19.965,1.3282c-6.4272,2.8777-11.9527,8.1438-14.8083,15.2884
					c-2.8517,7.1346-2.6046,14.7519,0.3399,21.334c2.8965,6.5739,8.7448,12.1963,16.9807,14.9308
					c7.334,2.3989,15.037,4.6393,23.2684,6.2009c8.2118,1.5677,16.8432,2.5085,25.6274,2.5549l6.6064-0.1352
					c2.2035-0.153,4.408-0.3544,6.6102-0.55c2.2104-0.1454,4.3796-0.5667,6.5647-0.8868l3.2701-0.5256
					c1.0941-0.1636,2.1469-0.455,3.2217-0.681c2.1313-0.4895,4.2924-0.9691,6.3911-1.5011l6.0077-1.8148
					c2.0201-0.584,3.9539-1.2955,5.9049-1.9862l2.9222-1.0443c0.9735-0.3495,1.9496-0.6854,2.9043-1.1151l6.736-2.8914
					c2.2217-0.9884,4.2952-2.0982,6.4449-3.1522l3.1929-1.6086l3.045-1.7205c2.0203-1.1552,4.0735-2.2915,6.0585-3.4762
					c8.9412-5.4583,17.2591-11.3671,25.2059-17.5087c7.8232-6.2155,15.4065-12.591,22.5252-19.2343
					C484.0702,251.2986,497.2916,237.4217,509.8631,223.1997z"/>
			</g>
			<g>
				<path fill="#F9F9F9" d="M488.4825,237.9541l-31.8779-30.4523c0,0,0.3495-0.3589,0.948-1.0062
					c0.6007-0.6442,1.4588-1.5644,2.4886-2.6687c2.0448-2.2288,4.843-5.103,7.5131-8.1526
					c2.6886-3.0238,5.4075-6.0093,7.3995-8.3087c1.9849-2.3086,3.3082-3.8477,3.3082-3.8477
					c1.9539-2.2854,4.2938-4.0368,6.8063-5.3309c2.5058-1.3009,5.2302-2.0888,8.0201-2.3493
					c5.5775-0.5178,11.4263,1.0621,16.2281,4.9709c4.8019,3.9088,7.4464,9.3531,7.8428,15.0836
					c0.1995,2.8636-0.1606,5.7958-1.08,8.6254c-0.9325,2.821-2.4779,5.5085-4.5493,7.9281c0,0-1.395,1.6217-3.4876,4.0543
					c-2.1083,2.4232-4.9971,5.608-7.8516,8.8128c-2.8258,3.2221-5.8426,6.329-8.0258,8.7067
					c-1.1031,1.1819-2.0224,2.1667-2.6659,2.8562c-0.6404,0.6913-1.0178,1.0793-1.0178,1.0793L488.4825,237.9541z"/>
			</g>
			<g>
				<path fill="#F2F2F2" d="M456.6039,207.5026l31.8777,30.4524c0,0,0.4138-0.4377,0.8275-0.8754
					c0.4105-0.4397,0.821-0.8794,0.821-0.8794l-31.9984-30.3256c0,0-0.3809,0.4086-0.7618,0.8171
					C456.991,207.1032,456.6039,207.5026,456.6039,207.5026z"/>
			</g>
			<g>
				<g>
					<path fill="#E7B08E" d="M430.551,246.4888l14.886,17.7984c0,0,0.4643-0.3824,0.9285-0.7647
						c0.4524-0.3929,0.9048-0.7857,0.9048-0.7857l-15.0099-17.694c0,0-0.4232,0.3682-0.8465,0.7365
						C430.9825,246.134,430.551,246.4888,430.551,246.4888z"/>
				</g>
				<g>
					<polygon fill="#E7B08E" points="420.0392,247.5653 441.5506,274.926 443.4535,273.3798 421.7358,246.1826 					"/>
				</g>
				<g>
					<polygon fill="#E7B08E" points="416.5468,257.4844 430.2448,276.2125 432.1772,274.7532 418.3164,256.1453 					"/>
				</g>
			</g>
			<g>
				<g>
					<polygon fill="#E7B08E" points="369.1267,281.8002 375.27,304.1752 377.6963,303.4403 371.1396,281.183 					"/>
				</g>
				<g>
					<path fill="#E7B08E" d="M360.1091,277.8945l6.0822,34.2689c0,0,0.6765-0.109,1.3529-0.218
						c0.6758-0.1114,1.3359-0.2803,1.3359-0.2803l-6.899-34.1138c0,0-0.4632,0.129-0.9328,0.2013
						C360.5787,277.8235,360.1091,277.8945,360.1091,277.8945z"/>
				</g>
				<g>
					<polygon fill="#E7B08E" points="353.0363,284.6276 354.8594,307.7588 357.4524,307.5326 355.0666,284.4527 					"/>
				</g>
			</g>
			<g>
				<path fill="#FFFFFF" d="M507.3121,196.928l-0.402-4.6557c0,0-6.5782,0.6485-13.1878,1.1104
					c-6.593,0.4904-13.1018,0.8839-13.1018,0.8839l0.3113,4.5734c0,0,1.6465-0.087,4.1162-0.2174
					c2.4664-0.1438,5.732-0.3802,9.0298-0.6207c3.3066-0.2587,6.6132-0.5175,9.0932-0.7115
					C505.6556,197.0729,507.3121,196.928,507.3121,196.928z"/>
			</g>
			<g>
				<path fill="#FFFFFF" d="M503.1804,208.8806l-0.3094-4.6725c0,0-4.4065,0.342-8.813,0.684
					c-4.4196,0.3025-8.8258,0.5332-8.8258,0.5332l0.2589,4.6328c0,0,4.4177-0.2626,8.8355-0.5252
					c2.2214-0.1394,4.4464-0.2926,6.0925-0.4303C502.0758,208.9694,503.1804,208.8806,503.1804,208.8806z"/>
			</g>
		</g>
		<g>
			<g>
				<path fill="#FED6AA" d="M450.9855,115.735c0.8452-3.9205,0.7117-7.8019-0.0111-11.4463
					c-0.7458-3.6447-2.1646-7.0469-4.2352-10.0238c-4.0956-5.9603-10.436-10.195-18.0219-11.4482s-14.9728,0.6565-20.7602,4.6305
					c-2.8733,1.998-5.4333,4.4863-7.4153,7.3883c-2.0033,2.8934-3.3533,6.238-4.1327,9.8335
					c-3.4809,17.1688-7.6016,34.0609-12.6686,50.2823c-2.4795,8.1492-5.3567,15.9982-8.3736,23.6849
					c-3.1203,7.5927-6.4995,14.9206-10.2166,21.7586c-0.8307,1.4808-1.7021,2.9007-2.5433,4.3584l-1.2672,2.1766l-1.352,2.0321
					c-0.9094,1.3352-1.765,2.764-2.7007,4.0347l-2.8141,3.7666c-0.3768,0.5501-0.8339,1.0542-1.2762,1.567l-1.3224,1.542
					c-0.8802,1.0279-1.7386,2.0883-2.6678,3.0293l-2.7159,2.9275l-2.7105,2.5229c-0.4572,0.4075-0.8724,0.8772-1.3585,1.2404
					l-1.4252,1.1359c-0.9595,0.7426-1.8445,1.5902-2.8748,2.2319l-2.9776,2.0855c-1.0533,0.6176-2.0989,1.2456-3.1385,1.8852
					c-4.2712,2.4177-8.8846,4.49-13.9155,6.2521c-5.0187,1.7688-10.5518,3.1449-16.3915,4.3746
					c-6.562,1.3538-12.4513,5.4353-16.6261,11.1328c-4.1273,5.7057-6.2795,13.0291-5.1803,20.6443
					c1.0977,7.6046,5.1203,14.0779,10.9614,18.3058c5.7954,4.2449,13.6714,6.1899,22.1711,4.4402
					c7.5509-1.5895,15.342-3.5007,23.2515-6.2639c7.8955-2.7482,15.8409-6.2491,23.4715-10.601l5.6538-3.4203
					c1.8318-1.2342,3.6402-2.511,5.4496-3.7815c1.8416-1.2311,3.5095-2.6805,5.2418-4.0503l2.5692-2.0903
					c0.8657-0.6887,1.6318-1.4675,2.4496-2.2006c1.601-1.4897,3.2328-2.9856,4.7843-4.4956l4.2953-4.5755
					c1.4575-1.5158,2.7765-3.0989,4.1207-4.6725l2.0085-2.3654c0.6683-0.7894,1.3458-1.5684,1.9576-2.4179l4.3878-5.872
					c1.4299-1.9668,2.6707-3.9648,4.0054-5.9524l1.9609-2.9896l1.7768-3.0125c1.1721-2.0106,2.382-4.0213,3.5088-6.0398
					c5.0142-9.1976,9.2633-18.4737,13.0746-27.7659c3.6674-9.2944,7.0469-18.6074,9.8903-27.92
					C442.6977,152.9658,447.2094,134.3374,450.9855,115.735z"/>
			</g>
			<g>
				<path fill="#F9F9F9" d="M439.8467,139.203l-42.8332-10.4335c0,0,0.1232-0.4855,0.3179-1.3454
					c0.1982-0.8582,0.4812-2.0842,0.8209-3.5555c0.6565-2.9526,1.6426-6.8408,2.4302-10.8169
					c0.8165-3.9629,1.6784-7.9079,2.2538-10.8953c0.5646-2.9918,0.9411-4.9863,0.9411-4.9863
					c0.5494-2.9561,1.7002-5.6429,3.229-8.0198c1.5196-2.3796,3.485-4.4241,5.771-6.0447
					c4.5713-3.2372,10.4265-4.7934,16.5394-3.8091c6.1129,0.9842,11.1254,4.3768,14.3339,9.1414
					c1.6046,2.3802,2.7587,5.0997,3.3774,8.0098c0.6029,2.9093,0.6083,6.0095,0.0242,9.1405c0,0-0.3973,2.102-0.9932,5.2549
					c-0.6142,3.1527-1.5236,7.3552-2.3933,11.5579c-0.8362,4.2033-1.8953,8.4024-2.5972,11.5531
					c-0.3644,1.5751-0.6681,2.8877-0.8806,3.8065c-0.2089,0.9189-0.3418,1.4436-0.3418,1.4436L439.8467,139.203z"/>
			</g>
			<g>
				<path fill="#F2F2F2" d="M397.0132,128.7705l42.8332,10.4336c0,0,0.1395-0.586,0.2789-1.1719
					c0.1357-0.5861,0.2713-1.1721,0.2713-1.1721l-42.8742-10.2635c0,0-0.1256,0.5443-0.2512,1.0886
					C397.1488,128.2311,397.0132,128.7705,397.0132,128.7705z"/>
			</g>
			<g>
				<g>
					<path fill="#E7B08E" d="M393.9438,175.5599l21.7908,7.9709c0,0,0.2109-0.5633,0.4218-1.1266
						c0.1953-0.5664,0.3907-1.1328,0.3907-1.1328l-21.846-7.8185c0,0-0.1824,0.5305-0.3649,1.061
						C394.1401,175.0369,393.9438,175.5599,393.9438,175.5599z"/>
				</g>
				<g>
					<polygon fill="#E7B08E" points="385.3785,181.7481 417.6883,194.6875 418.5632,192.3971 386.1566,179.7024 					"/>
				</g>
				<g>
					<polygon fill="#E7B08E" points="387.3136,192.0845 408.5405,201.4546 409.4843,199.2246 388.1766,190.0401 					"/>
				</g>
			</g>
			<g>
				<g>
					<polygon fill="#E7B08E" points="358.4043,236.8528 374.912,253.1584 376.6458,251.3088 359.8389,235.3118 					"/>
				</g>
				<g>
					<path fill="#E7B08E" d="M348.642,237.9792l22.4019,26.6365c0,0,0.5313-0.4326,1.0627-0.8653
						c0.5296-0.4344,1.0168-0.9107,1.0168-0.9107l-23.0317-26.0938c0,0-0.3366,0.3433-0.7072,0.6407
						C349.0132,237.6828,348.642,237.9792,348.642,237.9792z"/>
				</g>
				<g>
					<polygon fill="#E7B08E" points="345.8833,247.3466 359.0278,266.4672 361.1603,264.9749 347.5541,246.18 					"/>
				</g>
			</g>
			<g>
				<path fill="#FFFFFF" d="M435.6404,94.2585l-2.676-3.831c0,0-5.3727,3.8507-10.8658,7.5555
					c-5.4645,3.7212-10.9045,7.3164-10.9045,7.3164l2.5563,3.805c0,0,1.3824-0.8986,3.456-2.2464
					c2.0641-1.3577,4.774-3.1953,7.5096-5.0525c2.7343-1.8774,5.4685-3.7547,7.5192-5.1627
					C434.2783,95.2122,435.6404,94.2585,435.6404,94.2585z"/>
			</g>
			<g>
				<path fill="#FFFFFF" d="M438.0386,106.6756l-2.6042-3.8917c0,0-3.6451,2.4995-7.2903,4.9989
					c-3.6763,2.4718-7.3768,4.8747-7.3768,4.8747l2.5406,3.8827c0,0,3.6946-2.4363,7.3892-4.8726
					c1.8541-1.2314,3.7044-2.4766,5.0612-3.4189C437.1264,107.3048,438.0386,106.6756,438.0386,106.6756z"/>
			</g>
		</g>
	</g>
	<circle fill="#FED6AA" cx="279.8922" cy="279.3347" r="111.8754"/>
</g>
</svg>
