<?xml version="1.0" encoding="utf-8"?>
<!-- Generator: Adobe Illustrator 19.1.0, SVG Export Plug-In . SVG Version: 6.00 Build 0)  -->
<svg version="1.1" id="Layer_1" xmlns="http://www.w3.org/2000/svg" xmlns:xlink="http://www.w3.org/1999/xlink" x="0px" y="0px"
	 viewBox="0 0 2392.7554 560" enable-background="new 0 0 2392.7554 560" xml:space="preserve">
<linearGradient id="SVGID_1_" gradientUnits="userSpaceOnUse" x1="875.4104" y1="399.5163" x2="1517.345" y2="399.5163">
	<stop  offset="0" style="stop-color:#4BD6F7"/>
	<stop  offset="1" style="stop-color:#4BD6F7;stop-opacity:0"/>
</linearGradient>
<polygon fill="url(#SVGID_1_)" points="995.1097,560 1196.3777,358.7321 1397.6458,560 1517.345,560 1196.3777,239.0326 
	875.4104,560 "/>
<linearGradient id="SVGID_2_" gradientUnits="userSpaceOnUse" x1="583.6069" y1="399.5163" x2="1225.5415" y2="399.5163">
	<stop  offset="0" style="stop-color:#4BD6F7"/>
	<stop  offset="1" style="stop-color:#4BD6F7;stop-opacity:0"/>
</linearGradient>
<polygon fill="url(#SVGID_2_)" points="703.3062,560 904.5742,358.7321 1105.8422,560 1225.5415,560 904.5742,239.0326 
	583.6069,560 "/>
<linearGradient id="SVGID_3_" gradientUnits="userSpaceOnUse" x1="291.8033" y1="399.5163" x2="933.7381" y2="399.5163">
	<stop  offset="0" style="stop-color:#4BD6F7"/>
	<stop  offset="1" style="stop-color:#4BD6F7;stop-opacity:0"/>
</linearGradient>
<polygon fill="url(#SVGID_3_)" points="411.5028,560 612.7708,358.7321 814.0386,560 933.7381,560 612.7708,239.0326 291.8033,560 
	"/>
<linearGradient id="SVGID_4_" gradientUnits="userSpaceOnUse" x1="0" y1="399.5163" x2="641.9348" y2="399.5163">
	<stop  offset="0" style="stop-color:#4BD6F7"/>
	<stop  offset="1" style="stop-color:#4BD6F7;stop-opacity:0"/>
</linearGradient>
<polygon fill="url(#SVGID_4_)" points="119.6993,560 320.9673,358.7321 522.2353,560 641.9348,560 320.9673,239.0326 0,560 "/>
<linearGradient id="SVGID_5_" gradientUnits="userSpaceOnUse" x1="1750.8208" y1="399.5163" x2="2392.7554" y2="399.5163">
	<stop  offset="0" style="stop-color:#4BD6F7"/>
	<stop  offset="1" style="stop-color:#4BD6F7;stop-opacity:0"/>
</linearGradient>
<polygon fill="url(#SVGID_5_)" points="1870.52,560 2071.7881,358.7321 2273.0562,560 2392.7554,560 2071.7881,239.0326 
	1750.8208,560 "/>
<linearGradient id="SVGID_6_" gradientUnits="userSpaceOnUse" x1="1459.0172" y1="399.5163" x2="2100.9519" y2="399.5163">
	<stop  offset="0" style="stop-color:#4BD6F7"/>
	<stop  offset="1" style="stop-color:#4BD6F7;stop-opacity:0"/>
</linearGradient>
<polygon fill="url(#SVGID_6_)" points="1578.7166,560 1779.9846,358.7321 1981.2526,560 2100.9519,560 1779.9846,239.0326 
	1459.0172,560 "/>
<linearGradient id="SVGID_7_" gradientUnits="userSpaceOnUse" x1="1167.2137" y1="399.5163" x2="1809.1484" y2="399.5163">
	<stop  offset="0" style="stop-color:#4BD6F7"/>
	<stop  offset="1" style="stop-color:#4BD6F7;stop-opacity:0"/>
</linearGradient>
<polygon fill="url(#SVGID_7_)" points="1286.9132,560 1488.1812,358.7321 1689.4491,560 1809.1484,560 1488.1812,239.0326 
	1167.2137,560 "/>
<linearGradient id="SVGID_8_" gradientUnits="userSpaceOnUse" x1="0" y1="399.5163" x2="350.1314" y2="399.5163">
	<stop  offset="0" style="stop-color:#4BD6F7"/>
	<stop  offset="1" style="stop-color:#4BD6F7;stop-opacity:0"/>
</linearGradient>
<polygon fill="url(#SVGID_8_)" points="29.1639,239.0326 0,268.1965 0,387.896 29.1639,358.7321 230.4319,560 350.1314,560 "/>
<linearGradient id="SVGID_9_" gradientUnits="userSpaceOnUse" x1="2042.6243" y1="399.5163" x2="2393" y2="399.5163">
	<stop  offset="0" style="stop-color:#4BD6F7"/>
	<stop  offset="1" style="stop-color:#4BD6F7;stop-opacity:0"/>
</linearGradient>
<polygon fill="url(#SVGID_9_)" points="2393,268.1964 2363.7139,239.0326 2042.6243,560 2162.3237,560 2363.7139,358.7321 
	2393,387.8958 "/>
</svg>
