<?xml version="1.0" encoding="utf-8"?>
<!-- Generator: Adobe Illustrator 19.1.0, SVG Export Plug-In . SVG Version: 6.00 Build 0)  -->
<svg version="1.1" id="Layer_1" xmlns="http://www.w3.org/2000/svg" xmlns:xlink="http://www.w3.org/1999/xlink" x="0px" y="0px"
	 viewBox="0 0 64.1164 220.507" enable-background="new 0 0 64.1164 220.507" xml:space="preserve">
<g>
	<path fill="#FFFFFF" d="M32.0582,220.507c-1.3697,0-2.7393-0.5231-3.7829-1.5693c-7.0206-7.0362-14.2785-14.3111-19.4728-21.6761
		C2.8776,188.865,0,180.9952,0,173.1998c0-7.7954,2.8776-15.6652,8.7998-24.0619c5.1943-7.3623,12.4471-14.632,19.4624-21.663
		c6.7153-6.7297,13.6446-13.6746,18.3223-20.3025c4.6047-6.5314,6.8458-12.3871,6.8458-17.901s-2.241-11.3696-6.8484-17.9023
		c-4.6752-6.6266-11.6044-13.5715-18.3067-20.2881c-7.0284-7.044-14.2811-14.3137-19.4755-21.6761C2.8776,21.0082,0,13.1384,0,5.343
		C0,2.3924,2.3924,0,5.343,0s5.343,2.3924,5.343,5.343c0,5.5139,2.241,11.3696,6.8484,17.9023
		c4.6673,6.6188,11.594,13.5611,18.2936,20.2751c7.0284,7.0453,14.2864,14.3177,19.4859,21.6878
		c5.9248,8.3981,8.8024,16.2678,8.8024,24.0632s-2.8776,15.6652-8.7998,24.0619c-5.2021,7.3715-12.4601,14.6438-19.4755,21.6761
		c-6.7127,6.7271-13.6393,13.6693-18.3067,20.2881c-4.6073,6.5327-6.8484,12.3884-6.8484,17.9023s2.241,11.3696,6.8484,17.9023
		c4.6699,6.6214,11.6018,13.5689,18.3067,20.2881c2.0845,2.0884,2.0793,5.4722-0.0078,7.5567
		C34.7897,219.9866,33.4226,220.507,32.0582,220.507z"/>
</g>
</svg>
