<?xml version="1.0" encoding="utf-8"?>
<!-- Generator: Adobe Illustrator 19.1.0, SVG Export Plug-In . SVG Version: 6.00 Build 0)  -->
<svg version="1.1" id="Layer_1" xmlns="http://www.w3.org/2000/svg" xmlns:xlink="http://www.w3.org/1999/xlink" x="0px" y="0px"
	 viewBox="0 0 220.507 64.1164" enable-background="new 0 0 220.507 64.1164" xml:space="preserve">
<g>
	<path fill="#FFFFFF" d="M0,32.0582c0-1.3697,0.5231-2.7393,1.5693-3.7829c7.0362-7.0206,14.3111-14.2785,21.6761-19.4728
		C31.6421,2.8776,39.5118,0,47.3072,0s15.6652,2.8776,24.0619,8.7998c7.3623,5.1943,14.632,12.4471,21.663,19.4624
		c6.7297,6.7153,13.6746,13.6446,20.3025,18.3223c6.5314,4.6047,12.3871,6.8458,17.901,6.8458
		c5.5139,0,11.3696-2.241,17.9023-6.8484c6.6266-4.6752,13.5715-11.6044,20.2881-18.3067
		c7.044-7.0284,14.3138-14.2811,21.6761-19.4755C199.4989,2.8776,207.3686,0,215.164,0c2.9507,0,5.343,2.3924,5.343,5.343
		s-2.3924,5.343-5.343,5.343c-5.5139,0-11.3696,2.241-17.9023,6.8484c-6.6188,4.6673-13.5611,11.594-20.2751,18.2936
		c-7.0453,7.0284-14.3177,14.2864-21.6878,19.4859c-8.3981,5.9248-16.2678,8.8024-24.0632,8.8024
		c-7.7954,0-15.6652-2.8776-24.0619-8.7998c-7.3715-5.2021-14.6438-12.4601-21.6761-19.4755
		c-6.7271-6.7127-13.6693-13.6393-20.2881-18.3067c-6.5327-4.6073-12.3884-6.8484-17.9023-6.8484s-11.3696,2.241-17.9023,6.8484
		C22.7835,22.2044,15.836,29.1362,9.1168,35.8411c-2.0884,2.0845-5.4722,2.0793-7.5567-0.0078C0.5205,34.7897,0,33.4226,0,32.0582z"
		/>
</g>
</svg>
