<?xml version="1.0" encoding="utf-8"?>
<!-- Generator: Adobe Illustrator 19.1.0, SVG Export Plug-In . SVG Version: 6.00 Build 0)  -->
<svg version="1.1" id="Layer_1" xmlns="http://www.w3.org/2000/svg" xmlns:xlink="http://www.w3.org/1999/xlink" x="0px" y="0px"
	 viewBox="-441.8436 250.7083 88.1561 54.5625" enable-background="new -441.8436 250.7083 88.1561 54.5625" xml:space="preserve">
<g>
	<g opacity="0.78">
		<path fill="#2E9BE1" d="M-405.209,302.9651c-0.9238,0-1.7925-0.3604-2.4458-1.0146l-10.5244-10.5244
			c-0.6436-0.6436-1.0127-1.5342-1.0127-2.4443v-0.585h-13.498c-3.7822,0-6.8589-3.0762-6.8589-6.8584l0.0005-3.4233
			c0-0.1348,0.0068-0.2705,0.02-0.4062c-0.0132-0.1133-0.0205-0.2241-0.0205-0.3374l0.0005-3.4229
			c0-3.4292,4.2744-6.438,6.8584-6.438h13.498v-0.5845c0-0.9092,0.3687-1.7998,1.0112-2.4438l10.5273-10.5269
			c0.6528-0.6533,1.521-1.0127,2.4443-1.0127h14.8867c0.9092,0,1.7998,0.3687,2.4434,1.0112l10.5273,10.5274
			c0.6543,0.6562,1.0127,1.5234,1.0127,2.4448v0.5845h13.498c2.5801,0,6.8584,3.0723,6.8584,6.3433v3.5176
			c0,0.104-0.0068,0.2051-0.0166,0.3057c0.0107,0.1152,0.0166,0.23,0.0166,0.3438v3.5176c0,3.7822-3.0771,6.8584-6.8594,6.8584
			h-13.4971v0.585c0,0.9072-0.3682,1.7979-1.0098,2.4424l-10.5293,10.5273c-0.6436,0.6445-1.5352,1.0137-2.4443,1.0137H-405.209z"/>
		<path fill="#2E9BE1" d="M-390.3224,254.9426c0.3862,0,0.7573,0.1538,1.0306,0.427l10.5256,10.5256
			c0.2732,0.2734,0.427,0.6443,0.427,1.0308v2.5844h15.4978c1.7157,0,4.8589,2.4282,4.8589,4.3435c0,1.3347,0,2.5496,0,3.5176
			c0,0.1096-0.0251,0.2122-0.0322,0.3201c0.0192,0.1108,0.0322,0.2209,0.0322,0.3291c0,1.3347,0,2.5495,0,3.5176
			c0,2.6836-2.1753,4.8589-4.8591,4.8589h-15.4976v2.5845c0,0.386-0.1538,0.7571-0.427,1.0305l-10.5256,10.5256
			c-0.2735,0.2732-0.6444,0.427-1.0308,0.427h-14.8864c-0.3868,0-0.7573-0.1538-1.0306-0.427l-10.5256-10.5259
			c-0.2733-0.2732-0.427-0.6443-0.427-1.0305v-2.5842h-15.4978c-2.6832,0-4.8589-2.1753-4.8589-4.8589
			c0-0.9439,0.0002-2.0059,0.0002-3.4231c0-0.1311,0.0124-0.2627,0.0349-0.3945c-0.0084-0.1174-0.0352-0.2295-0.0352-0.3491
			c0-0.9436,0.0002-2.0056,0.0002-3.4231c0-2.1243,3.1191-4.438,4.8586-4.438h15.4978v-2.5844c0-0.3863,0.1538-0.7574,0.427-1.0308
			l10.5256-10.5256c0.2732-0.2732,0.6438-0.427,1.0306-0.427H-390.3224 M-390.3224,250.9426h-14.8865
			c-1.4577,0-2.8282,0.5677-3.859,1.5986l-10.5256,10.5256c-0.6883,0.6889-1.1699,1.5284-1.4141,2.4437h-11.6823
			c-3.9048,0-8.8586,3.9729-8.8586,8.438l-0.0001,2.0575l-0.0001,1.3655c0,0.1284,0.0052,0.2472,0.0128,0.3526
			c-0.0084,0.1311-0.0126,0.2616-0.0126,0.3911l-0.0001,2.0572l-0.0001,1.3659c0,4.8848,3.9741,8.8589,8.8589,8.8589h11.6872
			c0.2482,0.917,0.7329,1.7672,1.4099,2.4439l10.5248,10.5251c1.0316,1.0311,2.4019,1.5986,3.8591,1.5986h14.8864
			c1.4569,0,2.827-0.5673,3.8579-1.5974l10.5269-10.5269c0.6883-0.6889,1.1699-1.5283,1.4141-2.4434h11.682
			c4.8849,0,8.8591-3.9741,8.8591-8.8589v-3.5176c0-0.1112-0.0034-0.2227-0.0103-0.3354c0.0062-0.0953,0.0103-0.2005,0.0103-0.3138
			v-3.5176c0-4.2184-5.0727-8.3435-8.8589-8.3435h-11.6822c-0.2441-0.9152-0.7254-1.7542-1.4128-2.4423l-10.527-10.5269
			C-387.4948,251.5101-388.8651,250.9426-390.3224,250.9426L-390.3224,250.9426z"/>
	</g>
	<g>
		<path fill="#FFF097" d="M-362.8413,279.2717h-69.8484c-2.6833,0-4.8589-2.1752-4.8589-4.8589
			c0-2.6837,2.1756-4.8589,4.8589-4.8589h69.8485c2.6839,0,4.8589,2.1752,4.8589,4.8589
			C-357.9823,277.0965-360.1575,279.2717-362.8413,279.2717z"/>
	</g>
	<polygon fill="#E9F1F7" points="-415.7343,281.8555 -415.7343,266.9698 -405.2085,256.4439 -390.3227,256.4439 -379.7968,266.9698 
		-379.7968,281.8555 -390.3227,292.3814 -405.2085,292.3814 	"/>
	<path fill="#FFFFFF" d="M-389.6625,295.561h-16.2059c-0.4211,0-0.8244-0.1674-1.1221-0.4648l-11.4585-11.4586
		c-0.2975-0.2975-0.4648-0.7014-0.4648-1.1221v-16.2057c0-0.4204,0.1674-0.8244,0.4648-1.1221l11.4585-11.4585
		c0.2975-0.2975,0.701-0.4649,1.1221-0.4649h16.206c0.4204,0,0.8244,0.1674,1.122,0.4649l11.4584,11.4585
		c0.2975,0.2975,0.4648,0.7014,0.4648,1.1221v16.206c0,0.4204-0.1674,0.8244-0.4648,1.122l-11.4585,11.4586
		C-388.8381,295.3937-389.242,295.561-389.6625,295.561z M-405.2113,292.3872h14.8918l10.5287-10.5287v-14.8918l-10.5287-10.5287
		h-14.8918l-10.5287,10.5287v14.8918L-405.2113,292.3872z"/>
	<g>
		<polygon fill="#E9F1F7" points="-379.7968,266.9698 -397.7656,274.4126 -405.2085,256.4439 -390.3227,256.4439 		"/>
	</g>
	<g>
		<polygon fill="#E9F1F7" points="-397.7656,274.4126 -390.3227,292.3814 -395.0797,292.3814 		"/>
	</g>
	<g>
		<polygon fill="#E9F1F7" points="-397.7656,274.4126 -405.2085,292.3814 -415.7343,281.8555 		"/>
	</g>
	<g>
		<polygon fill="#E9F1F7" points="-397.7656,274.4126 -415.7343,267.853 -415.7343,266.9698 		"/>
	</g>
	<g>
		<polygon fill="#68D8D6" points="-397.7656,274.4126 -379.7968,281.8555 -379.7968,271.4972 		"/>
	</g>
	<g>
		<polygon fill="#68D8D6" points="-397.7656,274.4126 -379.7968,266.9698 -390.3227,256.4439 -401.2142,256.4439 		"/>
	</g>
	<g>
		<polygon fill="#68D8D6" points="-397.7656,274.4126 -395.0797,292.3814 -405.2085,292.3814 		"/>
	</g>
	<g>
		<polygon fill="#F4CED4" points="-390.3227,292.3814 -379.7968,281.8555 -397.7656,274.4126 		"/>
	</g>
	<g>
		<polygon fill="#F4CED4" points="-397.7656,274.4126 -405.2085,292.3814 -410.819,286.7709 		"/>
	</g>
	<g>
		<polygon fill="#F4CED4" points="-397.7656,274.4126 -397.7656,256.4439 -405.2085,256.4439 -412.3173,263.5526 		"/>
	</g>
	<g>
		<path fill="#FFFFFF" d="M-402.2179,265.4699c-0.5794,0-1.127-0.3474-1.3547-0.9177l-2.0741-5.2045
			c-0.2979-0.7478,0.0669-1.5962,0.8147-1.8943c0.7488-0.2971,1.5958,0.0674,1.8937,0.8143l2.0741,5.2045
			c0.2979,0.7478-0.0669,1.5962-0.8147,1.8943C-401.8557,265.4368-402.0385,265.4699-402.2179,265.4699z"/>
	</g>
	<g opacity="0.2">
		<polygon fill="#E9F1F7" points="-405.9708,277.8114 -405.9708,271.0139 -401.1643,266.2075 -394.3668,266.2075 
			-389.5604,271.0139 -389.5604,277.8114 -394.3668,282.6178 -401.1643,282.6178 		"/>
		<path fill="#FFFFFF" d="M-394.3671,284.0756h-6.7974c-0.3868,0-0.7573-0.1538-1.0307-0.427l-4.8063-4.8069
			c-0.2733-0.2733-0.427-0.6443-0.427-1.0307v-6.797c0-0.3862,0.1538-0.7573,0.427-1.0307l4.8063-4.8069
			c0.2733-0.2733,0.6439-0.427,1.0307-0.427h6.7974c0.3862,0,0.7573,0.1538,1.0307,0.427l4.8069,4.8069
			c0.2733,0.2733,0.427,0.6443,0.427,1.0307v6.797c0,0.3862-0.1538,0.7573-0.427,1.0307l-4.8069,4.8069
			C-393.6097,283.922-393.9807,284.0756-394.3671,284.0756z M-400.5604,281.1602h5.5898l3.9528-3.9528v-5.5898l-3.9528-3.9528
			h-5.5898l-3.9528,3.9528v5.5898L-400.5604,281.1602z"/>
	</g>
	<g>
		<path fill="#FFFFFF" d="M-362.2813,275.8703h-3.0776c-0.8048,0-1.4578-0.653-1.4578-1.4578s0.653-1.4578,1.4578-1.4578h3.0776
			c0.8048,0,1.4577,0.653,1.4577,1.4578S-361.4767,275.8703-362.2813,275.8703z"/>
	</g>
	<g>
		<path fill="#FFFFFF" d="M-421.0148,275.8703h-11.675c-0.8052,0-1.4578-0.653-1.4578-1.4578s0.6524-1.4578,1.4578-1.4578h11.675
			c0.8052,0,1.4578,0.653,1.4578,1.4578S-420.2095,275.8703-421.0148,275.8703z"/>
	</g>
</g>
</svg>
