<?xml version="1.0" encoding="utf-8"?>
<!-- Generator: Adobe Illustrator 17.0.0, SVG Export Plug-In . SVG Version: 6.00 Build 0)  -->
<!DOCTYPE svg PUBLIC "-//W3C//DTD SVG 1.1//EN" "http://www.w3.org/Graphics/SVG/1.1/DTD/svg11.dtd">
<svg version="1.1" id="Layer_1" xmlns="http://www.w3.org/2000/svg" xmlns:xlink="http://www.w3.org/1999/xlink" x="0px" y="0px"
	 width="80px" height="40.6667px" viewBox="-10 -5.8958 80 40.6667" enable-background="new -10 -5.8958 80 40.6667"
	 xml:space="preserve">
<g>
	<g>
		<path fill="#FFF097" d="M64.9242,19.3394H-4.9242c-2.6833,0-4.8589-2.1752-4.8589-4.8589s2.1756-4.8589,4.8589-4.8589h69.8485
			c2.6839,0,4.8589,2.1752,4.8589,4.8589S67.608,19.3394,64.9242,19.3394z"/>
	</g>
	<g opacity="0.5">
		<polygon fill="#E9F1F7" points="12.0312,21.9232 12.0312,7.0375 22.557,-3.4884 37.4428,-3.4884 47.9687,7.0375 47.9687,21.9232 
			37.4428,32.4491 22.557,32.4491 		"/>
		<path fill="#FFFFFF" d="M37.4432,33.9069H22.5568c-0.3868,0-0.7573-0.1538-1.0307-0.427L11.0005,22.9542
			c-0.2733-0.2733-0.427-0.6443-0.427-1.0307V7.0372c0-0.3862,0.1538-0.7573,0.427-1.0307L21.5261-4.5191
			c0.2733-0.2733,0.6439-0.427,1.0307-0.427h14.8865c0.3862,0,0.7573,0.1538,1.0307,0.427L48.9995,6.0065
			c0.2733,0.2733,0.427,0.6443,0.427,1.0307v14.8865c0,0.3862-0.1538,0.7573-0.427,1.0307L38.4739,33.48
			C38.2005,33.7532,37.8295,33.9069,37.4432,33.9069z M23.1604,30.9915h13.6793l9.6715-9.6715V7.6407l-9.6715-9.6715H23.1604
			l-9.6715,9.6715V21.32L23.1604,30.9915z"/>
	</g>
	<g>
		<polygon fill="#E9F1F7" points="47.9687,7.0375 29.9999,14.4803 22.557,-3.4884 37.4428,-3.4884 		"/>
	</g>
	<g>
		<polygon fill="#E9F1F7" points="29.9999,14.4803 37.4428,32.4491 32.6858,32.4491 		"/>
	</g>
	<g>
		<polygon fill="#E9F1F7" points="29.9999,14.4803 22.557,32.4491 12.0312,21.9232 		"/>
	</g>
	<g>
		<polygon fill="#E9F1F7" points="29.9999,14.4803 12.0312,7.9207 12.0312,7.0375 		"/>
	</g>
	<g>
		<polygon fill="#68D8D6" points="29.9999,14.4803 47.9687,21.9232 47.9687,11.5649 		"/>
	</g>
	<g>
		<polygon fill="#68D8D6" points="29.9999,14.4803 47.9687,7.0375 37.4428,-3.4884 26.5513,-3.4884 		"/>
	</g>
	<g>
		<polygon fill="#68D8D6" points="29.9999,14.4803 32.6858,32.4491 22.557,32.4491 		"/>
	</g>
	<g>
		<polygon fill="#F4CED4" points="37.4428,32.4491 47.9687,21.9232 29.9999,14.4803 		"/>
	</g>
	<g>
		<polygon fill="#F4CED4" points="29.9999,14.4803 22.557,32.4491 16.9465,26.8386 		"/>
	</g>
	<g>
		<polygon fill="#F4CED4" points="29.9999,14.4803 29.9999,-3.4884 22.557,-3.4884 15.4482,3.6203 		"/>
	</g>
	<g>
		<path fill="#FFFFFF" d="M25.5476,5.5376c-0.5794,0-1.127-0.3474-1.3547-0.9177l-2.0741-5.2045
			c-0.2979-0.7478,0.0669-1.5962,0.8147-1.8943c0.7488-0.2971,1.5958,0.0674,1.8937,0.8143l2.0741,5.2045
			c0.2979,0.7478-0.0669,1.5962-0.8147,1.8943C25.9098,5.5045,25.727,5.5376,25.5476,5.5376z"/>
	</g>
	<g opacity="0.2">
		<polygon fill="#E9F1F7" points="21.7947,17.8791 21.7947,11.0816 26.6012,6.2752 33.3987,6.2752 38.2051,11.0816 38.2051,17.8791 
			33.3987,22.6855 26.6012,22.6855 		"/>
		<path fill="#FFFFFF" d="M33.3984,24.1433H26.601c-0.3868,0-0.7573-0.1538-1.0307-0.427l-4.8063-4.8069
			c-0.2733-0.2733-0.427-0.6443-0.427-1.0307v-6.797c0-0.3862,0.1538-0.7573,0.427-1.0307l4.8063-4.8069
			c0.2733-0.2733,0.6439-0.427,1.0307-0.427h6.7974c0.3862,0,0.7573,0.1538,1.0307,0.427l4.8069,4.8069
			c0.2733,0.2733,0.427,0.6443,0.427,1.0307v6.797c0,0.3862-0.1538,0.7573-0.427,1.0307l-4.8069,4.8069
			C34.1558,23.9897,33.7848,24.1433,33.3984,24.1433z M27.2051,21.2279h5.5898l3.9528-3.9528v-5.5898l-3.9528-3.9528h-5.5898
			l-3.9528,3.9528v5.5898L27.2051,21.2279z"/>
	</g>
	<g>
		<path fill="#FFFFFF" d="M65.4842,15.938h-3.0776c-0.8048,0-1.4578-0.653-1.4578-1.4578s0.653-1.4578,1.4578-1.4578h3.0776
			c0.8048,0,1.4577,0.653,1.4577,1.4578S66.2888,15.938,65.4842,15.938z"/>
	</g>
	<g>
		<path fill="#FFFFFF" d="M6.7507,15.938h-11.675c-0.8052,0-1.4578-0.653-1.4578-1.4578s0.6524-1.4578,1.4578-1.4578h11.675
			c0.8052,0,1.4578,0.653,1.4578,1.4578S7.556,15.938,6.7507,15.938z"/>
	</g>
</g>
</svg>
