<?xml version="1.0" encoding="utf-8"?>
<!-- Generator: Adobe Illustrator 19.1.0, SVG Export Plug-In . SVG Version: 6.00 Build 0)  -->
<svg version="1.1" id="Layer_1" xmlns="http://www.w3.org/2000/svg" xmlns:xlink="http://www.w3.org/1999/xlink" x="0px" y="0px"
	 viewBox="0 0 732.2527 17.4116" enable-background="new 0 0 732.2527 17.4116" xml:space="preserve">
<g opacity="0.2">
	<path fill="#E6F5FC" d="M732.2527,8.7056c0,0.372-0.1417,0.7436-0.4258,1.027c-1.9101,1.9059-3.8847,3.8765-5.8862,5.2889
		c-2.2806,1.6083-4.4182,2.3901-6.5345,2.3901c-2.1169,0-4.2545-0.7818-6.5344-2.3901c-2.0022-1.4124-3.9768-3.3831-5.8869-5.2889
		c-1.8265-1.8226-3.7125-3.7033-5.5093-4.9708c-1.7733-1.2519-3.3632-1.8598-4.8617-1.8598c-1.4984,0-3.089,0.6079-4.8616,1.8591
		c-1.8003,1.2696-3.6856,3.1517-5.5093,4.9715c-1.9136,1.9087-3.8882,3.8783-5.8869,5.2889
		c-2.2806,1.6083-4.4182,2.3901-6.5344,2.3901c-2.117,0-4.2545-0.7818-6.5345-2.3901c-1.9973-1.4088-3.969-3.3756-5.8755-5.2779
		c-1.8378-1.8336-3.7238-3.7143-5.5206-4.9818c-1.7734-1.2519-3.3632-1.8598-4.8617-1.8598s-3.0891,0.6079-4.8617,1.8591
		c-1.7953,1.2668-3.6778,3.1447-5.4987,4.9609c-1.9243,1.9193-3.8988,3.8889-5.8975,5.2995
		c-2.2799,1.6083-4.4167,2.3901-6.5344,2.3901c-2.117,0-4.2545-0.7818-6.5344-2.3901c-1.9987-1.4106-3.9733-3.3802-5.8827-5.285
		c-1.8307-1.8265-3.7167-3.7072-5.5135-4.9747c-1.7726-1.2519-3.3632-1.8598-4.8617-1.8598s-3.0891,0.6079-4.8617,1.8591
		c-1.7968,1.2682-3.6827,3.1489-5.5057,4.968c-1.9172,1.9122-3.8918,3.8818-5.8898,5.2921
		c-2.2806,1.6086-4.4182,2.3905-6.5352,2.3905c-2.1177,0-4.2545-0.7818-6.5344-2.3901c-1.9987-1.4106-3.9733-3.3802-5.8826-5.285
		c-1.8307-1.8265-3.7168-3.7072-5.5135-4.9754c-1.7726-1.2512-3.3632-1.8591-4.8616-1.8591c-1.4992,0-3.0891,0.6079-4.861,1.8591
		c-1.7974,1.2682-3.6835,3.1489-5.5064,4.968c-1.9214,1.9168-3.8932,3.8836-5.8897,5.2925
		c-2.2806,1.6083-4.4182,2.3901-6.5352,2.3901c-2.1163,0-4.2538-0.7818-6.5338-2.3901c-1.9994-1.4106-3.9739-3.3802-5.8834-5.285
		c-1.8357-1.8308-3.7182-3.7086-5.5128-4.9747c-1.7733-1.2519-3.3639-1.8598-4.8624-1.8598s-3.0883,0.6079-4.861,1.8591
		c-1.7975,1.2682-3.6835,3.1489-5.5064,4.968c-1.9136,1.9094-3.8882,3.8801-5.8897,5.2925
		c-2.2806,1.6083-4.4182,2.3901-6.5352,2.3901s-4.2538-0.7818-6.5338-2.3901c-1.9994-1.4106-3.9739-3.3802-5.8833-5.285
		c-1.8279-1.8237-3.7132-3.7058-5.5128-4.9747c-1.7734-1.2519-3.3633-1.8598-4.8617-1.8598c-1.4985,0-3.0891,0.6079-4.8617,1.8591
		c-1.8003,1.2696-3.6856,3.1517-5.5093,4.9715c-1.9136,1.9087-3.8882,3.8783-5.8869,5.2889
		c-2.2806,1.6083-4.4182,2.3901-6.5345,2.3901c-2.117,0-4.2545-0.7818-6.5345-2.3901c-2.0022-1.4124-3.9768-3.3831-5.8869-5.2889
		c-1.8265-1.8226-3.7125-3.7033-5.5093-4.9708c-1.7733-1.2519-3.3632-1.8598-4.8617-1.8598s-3.089,0.6079-4.8617,1.8591
		c-1.7953,1.2668-3.6778,3.1447-5.4986,4.9609c-1.9243,1.9193-3.8988,3.8889-5.8975,5.2995
		c-2.2806,1.6083-4.4182,2.3901-6.5344,2.3901c-2.117,0-4.2545-0.7818-6.5345-2.3901c-1.9973-1.4088-3.969-3.3756-5.8755-5.2779
		c-1.8379-1.8336-3.7238-3.7143-5.5206-4.9818c-1.7726-1.2519-3.3632-1.8598-4.8617-1.8598s-3.0891,0.6079-4.8617,1.8591
		c-1.7968,1.2682-3.6828,3.1489-5.5064,4.968c-1.9186,1.9144-3.8918,3.8829-5.8897,5.2925
		c-2.2803,1.6083-4.4174,2.3901-6.5345,2.3901c-2.117,0-4.2542-0.7818-6.5345-2.3901c-1.998-1.4096-3.9711-3.3781-5.8791-5.2815
		c-1.8368-1.8322-3.721-3.7115-5.517-4.9782c-1.773-1.2519-3.3633-1.8598-4.8617-1.8598c-1.4985,0-3.0887,0.6079-4.8614,1.8591
		c-1.7971,1.2682-3.6827,3.1489-5.5064,4.968c-1.914,1.9101-3.8896,3.8811-5.8901,5.2925
		c-2.2796,1.6083-4.4171,2.3901-6.5345,2.3901c-2.117,0-4.2542-0.7818-6.5345-2.3901c-1.999-1.4106-3.9732-3.3802-5.8826-5.285
		c-1.8283-1.824-3.715-3.7065-5.5135-4.9747c-1.7726-1.2519-3.3629-1.8598-4.8613-1.8598c-1.4988,0-3.0891,0.6079-4.8613,1.8591
		c-1.7989,1.2689-3.6856,3.1514-5.51,4.9719c-1.9133,1.9083-3.8875,3.8779-5.8862,5.2886
		c-2.2807,1.6083-4.4182,2.3901-6.5348,2.3901c-2.1173,0-4.2549-0.7818-6.5345-2.3901c-2.0004-1.4113-3.9761-3.3824-5.8865-5.2886
		c-1.8272-1.823-3.7125-3.7037-5.5096-4.9719c-1.773-1.2512-3.3632-1.8591-4.8617-1.8591c-1.4985,0-3.0887,0.6079-4.8613,1.8591
		c-1.7964,1.2675-3.6806,3.1468-5.5029,4.9644c-1.9225,1.9179-3.8957,3.8864-5.8936,5.296
		c-2.2803,1.6083-4.4175,2.3901-6.5345,2.3901c-2.1166,0-4.2542-0.7818-6.5345-2.3901c-1.998-1.4096-3.9711-3.3781-5.8791-5.2815
		c-1.8368-1.8322-3.721-3.7115-5.5171-4.9782c-1.7726-1.2519-3.3629-1.8598-4.8617-1.8598c-1.4985,0-3.0887,0.6079-4.8613,1.8591
		c-1.7971,1.2682-3.6828,3.1489-5.5064,4.968c-1.914,1.9101-3.8896,3.8811-5.8901,5.2925
		c-2.2796,1.6083-4.4171,2.3901-6.5345,2.3901c-2.117,0-4.2542-0.7818-6.5345-2.3901c-2.0001-1.4113-3.9757-3.3824-5.8862-5.2886
		c-1.8272-1.823-3.7129-3.7037-5.5096-4.9719c-1.773-1.2512-3.3632-1.8591-4.8617-1.8591c-1.4988,0-3.089,0.6079-4.8613,1.8591
		c-1.7989,1.2689-3.6856,3.1514-5.51,4.9719c-1.9133,1.9083-3.8875,3.8779-5.8865,5.2886
		c-2.2803,1.6083-4.4178,2.3901-6.5344,2.3901c-2.1173,0-4.2549-0.7818-6.5344-2.3901c-1.998-1.4096-3.9711-3.3781-5.8791-5.2815
		c-1.8368-1.8322-3.721-3.7115-5.5171-4.9782c-1.773-1.2519-3.3632-1.8598-4.8617-1.8598s-3.0887,0.6079-4.8613,1.8591
		c-1.7964,1.2675-3.6806,3.1468-5.5029,4.9644c-1.9225,1.9179-3.8957,3.8864-5.8936,5.296
		c-2.2803,1.6083-4.4175,2.3901-6.5345,2.3901c-2.1166,0-4.2542-0.7818-6.5344-2.3901c-1.999-1.4106-3.9732-3.3802-5.8826-5.285
		c-1.8283-1.824-3.715-3.7065-5.5135-4.9747c-1.7727-1.2519-3.3629-1.8598-4.8617-1.8598c-1.4985,0-3.0887,0.6079-4.8613,1.8591
		c-1.7971,1.2682-3.6828,3.1489-5.5064,4.968c-1.914,1.9101-3.8896,3.8811-5.8901,5.2925
		c-2.2796,1.6083-4.4171,2.3901-6.5341,2.3901c-2.1173,0-4.2549-0.7818-6.5345-2.3901c-2.0004-1.4113-3.9761-3.3824-5.8865-5.2886
		c-1.8272-1.823-3.7129-3.7037-5.5096-4.9719c-1.773-1.2512-3.3632-1.8591-4.8617-1.8591c-1.4988,0-3.089,0.6079-4.8613,1.8591
		C6.1869,6.03,4.3002,7.9125,2.4758,9.733c-0.5672,0.5657-1.4861,0.5647-2.0518-0.0025c-0.5661-0.5672-0.5654-1.4861,0.0021-2.0518
		c1.9105-1.9066,3.8861-3.8776,5.8865-5.2889C8.5912,0.7822,10.7287,0,12.8471,0c2.118,0,4.2556,0.7822,6.5348,2.3905
		c1.9987,1.4099,3.9729,3.3795,5.8823,5.284c1.8283,1.8244,3.715,3.7068,5.5135,4.9758c1.7737,1.2512,3.3639,1.8594,4.8617,1.8594
		c1.4978,0,3.0876-0.6082,4.8613-1.8594c1.7985-1.2689,3.6852-3.1514,5.5096-4.9715c1.9133-1.9087,3.8875-3.8783,5.8865-5.2889
		C54.1758,0.7822,56.3133,0,58.4314,0c2.1184,0,4.2559,0.7822,6.5348,2.3905c2.0001,1.4106,3.9757,3.3816,5.8862,5.2882
		c1.8272,1.8226,3.7125,3.7037,5.51,4.9715c1.7737,1.2512,3.3639,1.8594,4.8613,1.8594s3.0876-0.6082,4.8617-1.8594
		c1.796-1.2671,3.6803-3.1468,5.5025-4.9644c1.9225-1.9179,3.8957-3.8868,5.8936-5.296C99.7604,0.7822,101.8979,0,104.0159,0
		c2.118,0,4.2556,0.7822,6.5348,2.3905c1.9976,1.4085,3.9708,3.3774,5.8787,5.2804c1.8368,1.8325,3.721,3.7122,5.5171,4.9793
		c1.7737,1.2512,3.3639,1.8594,4.8617,1.8594c1.4974,0,3.0876-0.6082,4.8617-1.8594c1.7971-1.2679,3.6824-3.1489,5.5061-4.968
		c1.914-1.9101,3.8896-3.8811,5.8901-5.2925C145.3446,0.7822,147.4821,0,149.6005,0c2.118,0,4.2556,0.7822,6.5348,2.3905
		c1.9987,1.4099,3.9729,3.3795,5.8823,5.284c1.8286,1.8244,3.715,3.7068,5.5135,4.9758c1.7737,1.2512,3.3639,1.8594,4.8613,1.8594
		c1.4978,0,3.088-0.6082,4.8617-1.8594c1.7985-1.2689,3.6852-3.1514,5.5096-4.9715c1.9133-1.9087,3.8875-3.8783,5.8865-5.2889
		C190.9292,0.7822,193.0667,0,195.1847,0c2.1184,0,4.2559,0.7822,6.5348,2.3905c1.9976,1.4085,3.9708,3.3774,5.8787,5.2804
		c1.8368,1.8325,3.721,3.7122,5.5171,4.9793c1.7741,1.2512,3.3643,1.8594,4.8617,1.8594s3.0876-0.6082,4.8617-1.8594
		c1.796-1.2671,3.6803-3.1468,5.5025-4.9644c1.9225-1.9179,3.8957-3.8868,5.8936-5.296C236.5137,0.7822,238.6513,0,240.7693,0
		c2.118,0,4.2556,0.7822,6.5348,2.3905c1.9987,1.4099,3.9729,3.3795,5.8823,5.284c1.8283,1.8244,3.715,3.7068,5.5135,4.9758
		c1.7737,1.2512,3.364,1.8594,4.8617,1.8594c1.4974,0,3.0876-0.6082,4.8617-1.8594c1.7971-1.2679,3.6824-3.1489,5.5061-4.968
		c1.914-1.9101,3.8896-3.8811,5.8901-5.2925C282.098,0.7822,284.2355,0,286.3539,0s4.2556,0.7822,6.5345,2.3905
		c2.0001,1.4106,3.9757,3.3816,5.8862,5.2882c1.8272,1.8226,3.7129,3.7037,5.51,4.9715c1.7737,1.2512,3.3639,1.8594,4.8613,1.8594
		c1.4977,0,3.088-0.6082,4.8617-1.8594c1.7985-1.2689,3.6852-3.1514,5.5096-4.9715c1.9133-1.9087,3.8875-3.8783,5.8865-5.2889
		C327.6825,0.7822,329.82,0,331.9381,0c2.118,0,4.2556,0.7822,6.5348,2.3905c1.9976,1.4085,3.9708,3.3774,5.8788,5.2804
		c1.8368,1.8325,3.721,3.7122,5.517,4.9793c1.7741,1.2512,3.3643,1.8594,4.8617,1.8594s3.0876-0.6082,4.8617-1.8594
		c1.7961-1.2671,3.6803-3.1468,5.5025-4.9644c1.9204-1.9158,3.895-3.8854,5.8929-5.2953C373.2668,0.7822,375.4043,0,377.5227,0
		s4.2559,0.7822,6.5345,2.3905c1.9987,1.4099,3.9732,3.3795,5.8826,5.284c1.8357,1.8311,3.7182,3.7093,5.5135,4.9758
		c1.7733,1.2512,3.3639,1.8594,4.8617,1.8594c1.497,0,3.0876-0.6082,4.8617-1.8594c1.7967-1.2682,3.6827-3.1489,5.5057-4.968
		c1.9214-1.9165,3.8932-3.884,5.8904-5.2925C418.8513,0.7822,420.9889,0,423.1072,0c2.1177,0,4.2552,0.7822,6.5345,2.3905
		c1.9987,1.4099,3.9732,3.3795,5.8826,5.284c1.8279,1.824,3.7132,3.7061,5.5135,4.9758c1.7734,1.2512,3.3639,1.8594,4.8617,1.8594
		c1.497,0,3.0876-0.6082,4.8617-1.8594c1.7968-1.2682,3.6827-3.1489,5.5057-4.968c1.9136-1.9094,3.8882-3.8804,5.8904-5.2925
		C464.4359,0.7822,466.5734,0,468.6918,0c2.1177,0,4.2552,0.7822,6.5344,2.3905c2.0015,1.4113,3.9761,3.3824,5.8862,5.2882
		c1.8265,1.8226,3.7125,3.7033,5.5099,4.9715c1.7734,1.2512,3.364,1.8594,4.861,1.8594c1.4978,0,3.0883-0.6082,4.8624-1.8594
		c1.7989-1.2696,3.6849-3.1517,5.5085-4.9715c1.9137-1.9087,3.8882-3.8783,5.8876-5.2889C510.0205,0.7822,512.158,0,514.2757,0
		c2.1184,0,4.2559,0.7822,6.5352,2.3905c1.9965,1.4078,3.9683,3.3753,5.8748,5.2769c1.8378,1.8339,3.7239,3.7146,5.5213,4.9828
		c1.7734,1.2512,3.364,1.8594,4.861,1.8594c1.4977,0,3.0883-0.6082,4.8617-1.8594c1.7953-1.2664,3.6778-3.1447,5.4986-4.9609
		c1.9243-1.9193,3.8989-3.8889,5.8983-5.2995C555.6043,0.7822,557.7419,0,559.8603,0c2.1183,0,4.2559,0.7822,6.5352,2.3905
		c1.9979,1.4099,3.9725,3.3795,5.8819,5.284c1.8307,1.8269,3.7168,3.7076,5.5142,4.9758c1.7726,1.2512,3.3632,1.8594,4.861,1.8594
		c1.4978,0,3.0884-0.6082,4.8624-1.8594c1.796-1.2679,3.6821-3.1489,5.5057-4.968c1.9164-1.9122,3.8911-3.8818,5.889-5.2917
		C601.1889,0.7822,603.3264,0,605.4448,0c2.1184,0,4.2559,0.7822,6.5345,2.3905c1.9987,1.4099,3.9732,3.3795,5.8826,5.284
		c1.8307,1.8269,3.7167,3.7079,5.5135,4.9761c1.7734,1.2508,3.364,1.8591,4.8617,1.8591s3.0883-0.6082,4.861-1.8594
		c1.7975-1.2682,3.6835-3.1489,5.5071-4.968c1.9207-1.9165,3.8925-3.884,5.8897-5.2925C646.7735,0.7822,648.911,0,651.0294,0
		c2.1177,0,4.2552,0.7822,6.5344,2.3905c1.9987,1.4099,3.9733,3.3795,5.8826,5.284c1.8358,1.8311,3.7182,3.7093,5.5135,4.9758
		c1.7733,1.2512,3.3639,1.8594,4.8617,1.8594c1.497,0,3.0876-0.6082,4.8617-1.8594c1.7967-1.2682,3.6827-3.1489,5.5057-4.968
		c1.9136-1.9094,3.8882-3.8804,5.8904-5.2925C692.358,0.7822,694.4956,0,696.614,0c2.1177,0,4.2552,0.7822,6.5345,2.3905
		c1.9987,1.4099,3.9732,3.3795,5.8826,5.284c1.8279,1.824,3.7132,3.7061,5.5135,4.9758c1.7734,1.2512,3.364,1.8594,4.8617,1.8594
		c1.4971,0,3.0876-0.6082,4.8617-1.8594c1.7989-1.2696,3.6849-3.1517,5.5085-4.9715c0.5675-0.5661,1.4865-0.5654,2.0526,0.0021
		C732.1117,7.9638,732.2527,8.3347,732.2527,8.7056z"/>
</g>
</svg>
