<?xml version="1.0" encoding="utf-8"?>
<!-- Generator: Adobe Illustrator 19.1.0, SVG Export Plug-In . SVG Version: 6.00 Build 0)  -->
<svg version="1.1" id="Layer_1" xmlns="http://www.w3.org/2000/svg" xmlns:xlink="http://www.w3.org/1999/xlink" x="0px" y="0px"
	 viewBox="0 0 17.4116 732.2527" enable-background="new 0 0 17.4116 732.2527" xml:space="preserve">
<g opacity="0.2">
	<path fill="#E6F5FC" d="M8.706,732.2527c-0.372,0-0.7436-0.1417-1.027-0.4258c-1.9059-1.9101-3.8765-3.8847-5.2889-5.8862
		C0.7818,723.6601,0,721.5225,0,719.4062c0-2.1169,0.7818-4.2545,2.3901-6.5344c1.4124-2.0022,3.3831-3.9768,5.2889-5.8869
		c1.8226-1.8265,3.7033-3.7125,4.9708-5.5093c1.2519-1.7733,1.8598-3.3632,1.8598-4.8617c0-1.4984-0.6079-3.089-1.8591-4.8616
		c-1.2696-1.8003-3.1517-3.6856-4.9715-5.5093c-1.9087-1.9136-3.8783-3.8882-5.2889-5.8869C0.7818,678.0755,0,675.938,0,673.8217
		c0-2.117,0.7818-4.2545,2.3901-6.5345c1.4088-1.9973,3.3756-3.969,5.2779-5.8755c1.8336-1.8378,3.7143-3.7238,4.9818-5.5206
		c1.2519-1.7734,1.8598-3.3632,1.8598-4.8617s-0.6079-3.0891-1.8591-4.8617c-1.2668-1.7953-3.1447-3.6778-4.9609-5.4987
		c-1.9193-1.9243-3.8889-3.8988-5.2995-5.8975C0.7818,632.4916,0,630.3548,0,628.2371c0-2.117,0.7818-4.2545,2.3901-6.5344
		c1.4106-1.9987,3.3802-3.9733,5.285-5.8827c1.8265-1.8307,3.7072-3.7167,4.9747-5.5135c1.2519-1.7726,1.8598-3.3632,1.8598-4.8617
		s-0.6079-3.0891-1.8591-4.8617c-1.2682-1.7968-3.1489-3.6827-4.968-5.5057c-1.9122-1.9172-3.8818-3.8918-5.2921-5.8898
		C0.7818,586.907,0,584.7695,0,582.6525c0-2.1177,0.7818-4.2545,2.3901-6.5344c1.4106-1.9987,3.3802-3.9733,5.285-5.8826
		c1.8265-1.8307,3.7072-3.7168,4.9754-5.5135c1.2512-1.7726,1.8591-3.3632,1.8591-4.8616c0-1.4992-0.6079-3.0891-1.8591-4.861
		c-1.2682-1.7974-3.1489-3.6835-4.968-5.5064c-1.9168-1.9214-3.8836-3.8932-5.2925-5.8897C0.7818,541.3225,0,539.1849,0,537.068
		c0-2.1163,0.7818-4.2538,2.3901-6.5338c1.4106-1.9994,3.3802-3.9739,5.285-5.8834c1.8308-1.8357,3.7086-3.7182,4.9747-5.5128
		c1.2519-1.7733,1.8598-3.3639,1.8598-4.8624s-0.6079-3.0883-1.8591-4.861c-1.2682-1.7975-3.1489-3.6835-4.968-5.5064
		c-1.9094-1.9136-3.8801-3.8882-5.2925-5.8897C0.7818,495.7379,0,493.6004,0,491.4834s0.7818-4.2538,2.3901-6.5338
		c1.4106-1.9994,3.3802-3.9739,5.285-5.8833c1.8237-1.8279,3.7058-3.7132,4.9747-5.5128c1.2519-1.7734,1.8598-3.3633,1.8598-4.8617
		c0-1.4985-0.6079-3.0891-1.8591-4.8617c-1.2696-1.8003-3.1517-3.6856-4.9715-5.5093c-1.9087-1.9136-3.8783-3.8882-5.2889-5.8869
		C0.7818,450.1534,0,448.0158,0,445.8995c0-2.117,0.7818-4.2545,2.3901-6.5345c1.4124-2.0022,3.3831-3.9768,5.2889-5.8869
		c1.8226-1.8265,3.7033-3.7125,4.9708-5.5093c1.2519-1.7733,1.8598-3.3632,1.8598-4.8617s-0.6079-3.089-1.8591-4.8617
		c-1.2668-1.7953-3.1447-3.6778-4.9609-5.4986c-1.9193-1.9243-3.8889-3.8988-5.2995-5.8975C0.7818,404.5688,0,402.4312,0,400.315
		c0-2.117,0.7818-4.2545,2.3901-6.5345c1.4088-1.9973,3.3756-3.969,5.2779-5.8755c1.8336-1.8379,3.7143-3.7238,4.9818-5.5206
		c1.2519-1.7726,1.8598-3.3632,1.8598-4.8617s-0.6079-3.0891-1.8591-4.8617c-1.2682-1.7968-3.1489-3.6828-4.968-5.5064
		c-1.9144-1.9186-3.8829-3.8918-5.2925-5.8897C0.7818,358.9846,0,356.8474,0,354.7304c0-2.117,0.7818-4.2542,2.3901-6.5345
		c1.4096-1.998,3.3781-3.9711,5.2815-5.8791c1.8322-1.8368,3.7115-3.721,4.9782-5.517c1.2519-1.773,1.8598-3.3633,1.8598-4.8617
		c0-1.4985-0.6079-3.0887-1.8591-4.8614c-1.2682-1.7971-3.1489-3.6827-4.968-5.5064c-1.9101-1.914-3.8811-3.8896-5.2925-5.8901
		C0.7818,313.4007,0,311.2632,0,309.1458c0-2.117,0.7818-4.2542,2.3901-6.5345c1.4106-1.999,3.3802-3.9732,5.285-5.8826
		c1.824-1.8283,3.7065-3.715,4.9747-5.5135c1.2519-1.7726,1.8598-3.3629,1.8598-4.8613c0-1.4988-0.6079-3.0891-1.8591-4.8613
		c-1.2689-1.7989-3.1514-3.6856-4.9719-5.51c-1.9083-1.9133-3.8779-3.8875-5.2886-5.8862C0.7818,267.8157,0,265.6782,0,263.5616
		c0-2.1173,0.7818-4.2549,2.3901-6.5345c1.4113-2.0004,3.3824-3.9761,5.2886-5.8865c1.823-1.8272,3.7037-3.7125,4.9719-5.5096
		c1.2512-1.773,1.8591-3.3632,1.8591-4.8617c0-1.4985-0.6079-3.0887-1.8591-4.8613c-1.2675-1.7964-3.1468-3.6806-4.9644-5.5029
		c-1.9179-1.9225-3.8864-3.8957-5.296-5.8936C0.7818,222.2312,0,220.094,0,217.977c0-2.1166,0.7818-4.2542,2.3901-6.5345
		c1.4096-1.998,3.3781-3.9711,5.2815-5.8791c1.8322-1.8368,3.7115-3.721,4.9782-5.5171c1.2519-1.7726,1.8598-3.3629,1.8598-4.8617
		c0-1.4985-0.6079-3.0887-1.8591-4.8613c-1.2682-1.7971-3.1489-3.6828-4.968-5.5064c-1.9101-1.914-3.8811-3.8896-5.2925-5.8901
		C0.7818,176.6473,0,174.5098,0,172.3924c0-2.117,0.7818-4.2542,2.3901-6.5345c1.4113-2.0001,3.3824-3.9757,5.2886-5.8862
		c1.823-1.8272,3.7037-3.7129,4.9719-5.5096c1.2512-1.773,1.8591-3.3632,1.8591-4.8617c0-1.4988-0.6079-3.089-1.8591-4.8613
		c-1.2689-1.7989-3.1514-3.6856-4.9719-5.51c-1.9083-1.9133-3.8779-3.8875-5.2886-5.8865C0.7818,131.0624,0,128.9249,0,126.8082
		c0-2.1173,0.7818-4.2549,2.3901-6.5344c1.4096-1.998,3.3781-3.9711,5.2815-5.8791c1.8322-1.8368,3.7115-3.721,4.9782-5.5171
		c1.2519-1.773,1.8598-3.3632,1.8598-4.8617s-0.6079-3.0887-1.8591-4.8613c-1.2675-1.7964-3.1468-3.6806-4.9644-5.5029
		c-1.9179-1.9225-3.8864-3.8957-5.296-5.8936C0.7818,85.4778,0,83.3406,0,81.2236c0-2.1166,0.7818-4.2542,2.3901-6.5344
		c1.4106-1.999,3.3802-3.9732,5.285-5.8826c1.824-1.8283,3.7065-3.715,4.9747-5.5135c1.2519-1.7727,1.8598-3.3629,1.8598-4.8617
		c0-1.4985-0.6079-3.0887-1.8591-4.8613c-1.2682-1.7971-3.1489-3.6828-4.968-5.5064c-1.9101-1.914-3.8811-3.8896-5.2925-5.8901
		C0.7818,39.8939,0,37.7564,0,35.6394c0-2.1173,0.7818-4.2549,2.3901-6.5345c1.4113-2.0004,3.3824-3.9761,5.2886-5.8865
		c1.823-1.8272,3.7037-3.7129,4.9719-5.5096c1.2512-1.773,1.8591-3.3632,1.8591-4.8617c0-1.4988-0.6079-3.089-1.8591-4.8613
		c-1.2689-1.7989-3.1514-3.6856-4.9719-5.51C7.1129,1.9087,7.114,0.9898,7.6811,0.424C8.2483-0.1421,9.1672-0.1413,9.733,0.4262
		c1.9066,1.9105,3.8776,3.8861,5.2889,5.8865c1.6076,2.2785,2.3898,4.416,2.3898,6.5345c0,2.118-0.7822,4.2556-2.3905,6.5348
		c-1.4099,1.9987-3.3795,3.9729-5.284,5.8823c-1.8244,1.8283-3.7068,3.715-4.9758,5.5135
		c-1.2512,1.7737-1.8594,3.3639-1.8594,4.8617c0,1.4978,0.6082,3.0876,1.8594,4.8613c1.2689,1.7985,3.1514,3.6852,4.9715,5.5096
		c1.9087,1.9133,3.8783,3.8875,5.2889,5.8865c1.6076,2.2789,2.3898,4.4164,2.3898,6.5345c0,2.1184-0.7822,4.2559-2.3905,6.5348
		c-1.4106,2.0001-3.3816,3.9757-5.2882,5.8862c-1.8226,1.8272-3.7037,3.7125-4.9715,5.51C3.5102,78.136,2.902,79.7262,2.902,81.2236
		s0.6082,3.0876,1.8594,4.8617c1.2671,1.796,3.1468,3.6803,4.9644,5.5025c1.9179,1.9225,3.8868,3.8957,5.296,5.8936
		c1.6076,2.2789,2.3898,4.4164,2.3898,6.5345c0,2.118-0.7822,4.2556-2.3905,6.5348c-1.4085,1.9976-3.3774,3.9708-5.2804,5.8787
		c-1.8325,1.8368-3.7122,3.721-4.9793,5.5171c-1.2512,1.7737-1.8594,3.3639-1.8594,4.8617c0,1.4974,0.6082,3.0876,1.8594,4.8617
		c1.2679,1.7971,3.1489,3.6824,4.968,5.5061c1.9101,1.914,3.8811,3.8896,5.2925,5.8901c1.6076,2.2785,2.3898,4.4161,2.3898,6.5345
		c0,2.118-0.7822,4.2556-2.3905,6.5348c-1.4099,1.9987-3.3795,3.9729-5.284,5.8823c-1.8244,1.8286-3.7068,3.715-4.9758,5.5135
		c-1.2512,1.7737-1.8594,3.3639-1.8594,4.8613c0,1.4978,0.6082,3.088,1.8594,4.8617c1.2689,1.7985,3.1514,3.6852,4.9715,5.5096
		c1.9087,1.9133,3.8783,3.8875,5.2889,5.8865c1.6076,2.2789,2.3898,4.4164,2.3898,6.5344c0,2.1184-0.7822,4.2559-2.3905,6.5348
		c-1.4085,1.9976-3.3774,3.9708-5.2804,5.8787c-1.8325,1.8368-3.7122,3.721-4.9793,5.5171
		c-1.2512,1.7741-1.8594,3.3643-1.8594,4.8617s0.6082,3.0876,1.8594,4.8617c1.2671,1.796,3.1468,3.6803,4.9644,5.5025
		c1.9179,1.9225,3.8868,3.8957,5.296,5.8936c1.6076,2.2789,2.3898,4.4164,2.3898,6.5345s-0.7822,4.2556-2.3905,6.5348
		c-1.4099,1.9987-3.3795,3.9729-5.284,5.8823c-1.8244,1.8283-3.7068,3.715-4.9758,5.5135c-1.2512,1.7737-1.8594,3.364-1.8594,4.8617
		c0,1.4974,0.6082,3.0876,1.8594,4.8617c1.2679,1.7971,3.1489,3.6824,4.968,5.5061c1.9101,1.914,3.8811,3.8896,5.2925,5.8901
		c1.6076,2.2785,2.3898,4.416,2.3898,6.5345s-0.7822,4.2556-2.3905,6.5345c-1.4106,2.0001-3.3816,3.9757-5.2882,5.8862
		c-1.8226,1.8272-3.7037,3.7129-4.9715,5.51c-1.2512,1.7737-1.8594,3.3639-1.8594,4.8613c0,1.4977,0.6082,3.088,1.8594,4.8617
		c1.2689,1.7985,3.1514,3.6852,4.9715,5.5096c1.9087,1.9133,3.8783,3.8875,5.2889,5.8865c1.6076,2.2789,2.3898,4.4164,2.3898,6.5345
		c0,2.118-0.7822,4.2556-2.3905,6.5348c-1.4085,1.9976-3.3774,3.9708-5.2804,5.8788c-1.8325,1.8368-3.7122,3.721-4.9793,5.517
		c-1.2512,1.7741-1.8594,3.3643-1.8594,4.8617s0.6082,3.0876,1.8594,4.8617c1.2671,1.7961,3.1468,3.6803,4.9644,5.5025
		c1.9158,1.9204,3.8854,3.895,5.2953,5.8929c1.6083,2.2792,2.3905,4.4167,2.3905,6.5352s-0.7822,4.2559-2.3905,6.5345
		c-1.4099,1.9987-3.3795,3.9732-5.284,5.8826c-1.8311,1.8357-3.7093,3.7182-4.9758,5.5135
		c-1.2512,1.7733-1.8594,3.3639-1.8594,4.8617c0,1.497,0.6082,3.0876,1.8594,4.8617c1.2682,1.7967,3.1489,3.6827,4.968,5.5057
		c1.9165,1.9214,3.884,3.8932,5.2925,5.8904c1.6076,2.2785,2.3898,4.4161,2.3898,6.5345c0,2.1177-0.7822,4.2552-2.3905,6.5345
		c-1.4099,1.9987-3.3795,3.9732-5.284,5.8826c-1.824,1.8279-3.7061,3.7132-4.9758,5.5135
		c-1.2512,1.7734-1.8594,3.3639-1.8594,4.8617c0,1.497,0.6082,3.0876,1.8594,4.8617c1.2682,1.7968,3.1489,3.6827,4.968,5.5057
		c1.9094,1.9136,3.8804,3.8882,5.2925,5.8904c1.6076,2.2785,2.3898,4.416,2.3898,6.5345c0,2.1177-0.7822,4.2552-2.3905,6.5344
		c-1.4113,2.0015-3.3824,3.9761-5.2882,5.8862c-1.8226,1.8265-3.7033,3.7125-4.9715,5.5099
		c-1.2512,1.7734-1.8594,3.364-1.8594,4.861c0,1.4978,0.6082,3.0883,1.8594,4.8624c1.2696,1.7989,3.1517,3.6849,4.9715,5.5085
		c1.9087,1.9137,3.8783,3.8882,5.2889,5.8876c1.6076,2.2785,2.3898,4.4161,2.3898,6.5338c0,2.1184-0.7822,4.2559-2.3905,6.5352
		c-1.4078,1.9965-3.3753,3.9683-5.2769,5.8748c-1.8339,1.8378-3.7146,3.7239-4.9828,5.5213
		c-1.2512,1.7734-1.8594,3.364-1.8594,4.861c0,1.4977,0.6082,3.0883,1.8594,4.8617c1.2664,1.7953,3.1447,3.6778,4.9609,5.4986
		c1.9193,1.9243,3.8889,3.8989,5.2995,5.8983c1.6076,2.2778,2.3898,4.4153,2.3898,6.5338c0,2.1183-0.7822,4.2559-2.3905,6.5352
		c-1.4099,1.9979-3.3795,3.9725-5.284,5.8819c-1.8269,1.8307-3.7076,3.7168-4.9758,5.5142
		c-1.2512,1.7726-1.8594,3.3632-1.8594,4.861c0,1.4978,0.6082,3.0884,1.8594,4.8624c1.2679,1.796,3.1489,3.6821,4.968,5.5057
		c1.9122,1.9164,3.8818,3.8911,5.2917,5.889c1.6083,2.2792,2.3905,4.4167,2.3905,6.5352s-0.7822,4.2559-2.3905,6.5345
		c-1.4099,1.9987-3.3795,3.9732-5.284,5.8826c-1.8269,1.8307-3.7079,3.7167-4.9761,5.5135
		c-1.2508,1.7734-1.8591,3.364-1.8591,4.8617s0.6082,3.0883,1.8594,4.861c1.2682,1.7975,3.1489,3.6835,4.968,5.5071
		c1.9165,1.9207,3.884,3.8925,5.2925,5.8897c1.6076,2.2786,2.3898,4.4161,2.3898,6.5345c0,2.1177-0.7822,4.2552-2.3905,6.5344
		c-1.4099,1.9987-3.3795,3.9733-5.284,5.8826c-1.8311,1.8358-3.7093,3.7182-4.9758,5.5135
		c-1.2512,1.7733-1.8594,3.3639-1.8594,4.8617c0,1.497,0.6082,3.0876,1.8594,4.8617c1.2682,1.7967,3.1489,3.6827,4.968,5.5057
		c1.9094,1.9136,3.8804,3.8882,5.2925,5.8904c1.6076,2.2785,2.3898,4.4161,2.3898,6.5344c0,2.1177-0.7822,4.2552-2.3905,6.5345
		c-1.4099,1.9987-3.3795,3.9732-5.284,5.8826c-1.824,1.8279-3.7061,3.7132-4.9758,5.5135c-1.2512,1.7734-1.8594,3.364-1.8594,4.8617
		c0,1.4971,0.6082,3.0876,1.8594,4.8617c1.2696,1.7989,3.1517,3.6849,4.9715,5.5085c0.5661,0.5675,0.5654,1.4865-0.0021,2.0526
		C9.4478,732.1117,9.0769,732.2527,8.706,732.2527z"/>
</g>
</svg>
