<?xml version="1.0" encoding="utf-8"?>
<!-- Generator: Adobe Illustrator 19.1.0, SVG Export Plug-In . SVG Version: 6.00 Build 0)  -->
<svg version="1.1" id="Layer_1" xmlns="http://www.w3.org/2000/svg" xmlns:xlink="http://www.w3.org/1999/xlink" x="0px" y="0px"
	 viewBox="0 0 557.1383 554.1848" enable-background="new 0 0 557.1383 554.1848" xml:space="preserve">
<g>
	<path opacity="0.5" fill="#FFFEE3" d="M313.8946,8.707l11.352,5.958c10.8967,5.719,23.0191,8.7069,35.3254,8.7069h12.8205
		c24.981,0,48.3674,12.2741,62.5582,32.8331l7.2829,10.551c6.9908,10.1279,16.3361,18.4071,27.2328,24.1262l11.352,5.958
		c22.1196,11.6092,37.1231,33.3457,40.1342,58.1445l1.5453,12.727c1.4833,12.2166,5.9106,23.8904,12.9014,34.0184l7.2829,10.551
		c14.1908,20.5589,17.3744,46.7781,8.516,70.1357l-4.5462,11.9873c-4.3639,11.5067-5.8688,23.9008-4.3854,36.1174l1.5453,12.727
		c3.0111,24.7989-6.3546,49.4942-25.0532,66.0597l-9.5963,8.5016c-9.2114,8.1606-16.3038,18.4357-20.6677,29.9423l-4.5462,11.9873
		c-8.8584,23.3576-28.6278,40.8719-52.8829,46.8502l-12.4479,3.0681c-11.9488,2.9451-23.0038,8.7473-32.2152,16.9078l-9.5963,8.5015
		c-18.6985,16.5655-44.3428,22.8862-68.5979,16.9079l-12.4479-3.0682c-11.9488-2.9451-24.4339-2.9451-36.3827,0l-12.4479,3.0682
		c-24.2551,5.9783-49.8993-0.3424-68.5979-16.9079l-9.5963-8.5015c-9.2114-8.1606-20.2665-13.9628-32.2152-16.9078l-12.4479-3.0681
		c-24.2551-5.9783-44.0245-23.4926-52.8829-46.8502l-4.5462-11.9873c-4.3639-11.5067-11.4563-21.7817-20.6677-29.9423
		l-9.5963-8.5016c-18.6985-16.5655-28.0643-41.2608-25.0531-66.0597l1.5453-12.727c1.4834-12.2166-0.0216-24.6107-4.3854-36.1174
		l-4.5462-11.9873c-8.8584-23.3576-5.6748-49.5768,8.516-70.1357l7.2829-10.551c6.9908-10.1279,11.4181-21.8017,12.9015-34.0184
		l1.5453-12.727c3.0111-24.7988,18.0147-46.5353,40.1343-58.1445l11.352-5.958c10.8967-5.719,20.242-13.9982,27.2328-24.1262
		l7.2829-10.551c14.1908-20.559,37.5772-32.8331,62.5582-32.8331h12.8205c12.3063,0,24.4287-2.9879,35.3254-8.7069l11.352-5.958
		C265.3633-2.9023,291.775-2.9023,313.8946,8.707z"/>
	<path fill="#F9F969" d="M307.1,60.3286l9.1685,4.812c8.8008,4.619,18.5916,7.0322,28.5309,7.0322h10.3546
		c20.1761,0,39.0644,9.9133,50.5257,26.5179l5.882,8.5216c5.6462,8.1799,13.194,14.8667,21.9948,19.4857l9.1685,4.812
		c17.8651,9.3763,29.9828,26.9319,32.4148,46.9609l1.2481,10.2791c1.1981,9.8669,4.7738,19.2953,10.42,27.4752l5.882,8.5216
		c11.4613,16.6046,14.0326,37.7807,6.8781,56.6457l-3.6718,9.6817c-3.5245,9.2934-4.74,19.3036-3.542,29.1705l1.2481,10.2791
		c2.432,20.029-5.1323,39.9745-20.2344,53.3537l-7.7505,6.8663c-7.4397,6.591-13.1679,14.8897-16.6924,24.1832l-3.6718,9.6817
		c-7.1545,18.865-23.1215,33.0105-42.7113,37.8389l-10.0537,2.478c-9.6505,2.3786-18.5792,7.0648-26.0189,13.6558l-7.7505,6.8664
		c-15.1021,13.3792-35.8138,18.4842-55.4037,13.6558l-10.0537-2.478c-9.6505-2.3787-19.7342-2.3787-29.3847,0l-10.0537,2.478
		c-19.5898,4.8285-40.3016-0.2766-55.4037-13.6558l-7.7505-6.8664c-7.4397-6.591-16.3684-11.2771-26.0189-13.6558l-10.0537-2.478
		c-19.5898-4.8285-35.5568-18.9739-42.7113-37.8389l-3.6718-9.6817c-3.5245-9.2934-9.2527-17.5922-16.6924-24.1832l-7.7505-6.8663
		c-15.102-13.3792-22.6663-33.3247-20.2344-53.3537l1.2481-10.2791c1.1981-9.8669-0.0174-19.8771-3.5419-29.1705l-3.6718-9.6817
		c-7.1545-18.865-4.5833-40.0411,6.878-56.6457l5.8821-8.5216c5.6462-8.1799,9.2219-17.6084,10.42-27.4752l1.2481-10.2791
		c2.432-20.029,14.5497-37.5846,32.4148-46.9609l9.1685-4.812c8.8008-4.619,16.3486-11.3058,21.9948-19.4857l5.8821-8.5216
		c11.4613-16.6046,30.3496-26.5179,50.5257-26.5179h10.3546c9.9393,0,19.73-2.4132,28.5309-7.0322l9.1685-4.812
		C267.9033,50.9523,289.235,50.9523,307.1,60.3286z"/>
</g>
</svg>
